<svg id="f56fb344-c1ff-4f63-bdd0-66b186b46de0" enable-background="new 0 0 510 510" height="512" viewBox="0 0 510 510" width="512" xmlns="http://www.w3.org/2000/svg" xmlns:xlink="http://www.w3.org/1999/xlink"><linearGradient id="353a63fc-3e98-48d1-ab33-8cb821fc8ba4" gradientUnits="userSpaceOnUse" x1="162.429" x2="479.686" y1="66.41" y2="383.666"><stop offset="0" stop-color="#d9b1ee"/><stop offset="1" stop-color="#814aa0"/></linearGradient><linearGradient id="f49bcb58-8dbb-42de-95f6-c7ed6b8092b2"><stop offset="0" stop-color="#5b3374" stop-opacity="0"/><stop offset="1" stop-color="#5b3374"/></linearGradient><linearGradient id="e3e30542-a492-4555-94c7-ff067255394b" gradientUnits="userSpaceOnUse" x1="280.424" x2="248.424" xlink:href="#f49bcb58-8dbb-42de-95f6-c7ed6b8092b2" y1="464.797" y2="426.131"/><linearGradient id="4cf5bf24-f5a4-4298-be4a-95d26026a39e" gradientUnits="userSpaceOnUse" x1="324.224" x2="286.891" xlink:href="#f49bcb58-8dbb-42de-95f6-c7ed6b8092b2" y1="320.106" y2="311.439"/><linearGradient id="8d82be41-747d-44b9-8e96-7b2b9c34c163" gradientUnits="userSpaceOnUse" x1="299.632" x2="246.966" xlink:href="#f49bcb58-8dbb-42de-95f6-c7ed6b8092b2" y1="243.041" y2="222.374"/><linearGradient id="751e3174-1c5b-42ef-8413-2509056f3901" gradientUnits="userSpaceOnUse" x1="246.122" x2="206.122" xlink:href="#f49bcb58-8dbb-42de-95f6-c7ed6b8092b2" y1="385.929" y2="316.596"/><linearGradient id="a283d58a-7b85-4eac-ac46-8e9ca3d26982"><stop offset="0" stop-color="#fe93bb"/><stop offset="1" stop-color="#fd3581"/></linearGradient><linearGradient id="c2c46544-7a40-48ae-b0d2-bc26806a131e" gradientUnits="userSpaceOnUse" x1="52.74" x2="291.851" xlink:href="#a283d58a-7b85-4eac-ac46-8e9ca3d26982" y1="-5.278" y2="233.832"/><linearGradient id="0ae22869-f5b4-4cff-a5f5-1f5677483168" gradientUnits="userSpaceOnUse" x1="27.432" x2="316.023" xlink:href="#a283d58a-7b85-4eac-ac46-8e9ca3d26982" y1="64.395" y2="352.986"/><linearGradient id="913cab71-0395-432e-8bbc-622d01d062de" gradientUnits="userSpaceOnUse" x1="318.956" x2="318.956" y1="148.162" y2="62.653"><stop offset="0" stop-color="#972437" stop-opacity="0"/><stop offset="1" stop-color="#42210b"/></linearGradient><g><path d="m321.045 510c-21.558 0-42.048-6.364-59.257-18.403-18.744-13.114-32.212-32.173-38.947-55.117l-69.024-235.139c-3.5-11.923 3.328-24.426 15.251-27.926 11.926-3.5 24.427 3.329 27.926 15.251l69.024 235.139c8.917 30.373 34.272 41.195 55.027 41.195s46.11-10.822 55.026-41.195l87.682-298.697c2.635-8.979.931-18.424-4.677-25.915s-14.191-11.787-23.548-11.787h-161.682c-9.357 0-17.94 4.296-23.548 11.787s-7.312 16.937-4.677 25.915l58.427 199.038c3.466 11.807 13.886 12.725 16.997 12.725s13.531-.917 16.997-12.725l39.771-135.48c3.5-11.923 16.008-18.75 27.926-15.251 11.923 3.5 18.752 16.003 15.251 27.926l-39.77 135.48c-7.91 26.946-32.092 45.05-60.175 45.05s-52.265-18.104-60.175-45.05l-58.427-199.038c-6.667-22.714-2.355-46.609 11.832-65.559s35.9-29.818 59.572-29.818h161.681c23.672 0 45.385 10.868 59.572 29.818s18.499 42.845 11.832 65.559l-87.683 298.697c-6.735 22.944-20.203 42.002-38.947 55.117-17.209 12.039-37.699 18.403-59.257 18.403z" fill="url(#353a63fc-3e98-48d1-ab33-8cb821fc8ba4)"/><path d="m321.049 465c-20.76 0-46.11-10.82-55.03-41.19l-14.23-48.48h-.94l-5.5 18.74c-1.39 4.75-3.08 9.33-5.03 13.72-4.53 10.18-10.54 19.38-17.87 27.35l.39 1.34c6.74 22.94 20.21 42 38.95 55.12 17.21 12.04 37.7 18.4 59.26 18.4.76 0 1.52-.03 2.28-.04v-45.01c-.76.03-1.53.05-2.28.05z" fill="url(#e3e30542-a492-4555-94c7-ff067255394b)"/><path d="m338.039 324.15c-3.46 11.8-13.88 12.72-16.99 12.72s-13.53-.92-17-12.72l-19.09-65.02-10.5 35.77-12.93 44.04c8.53 25.78 32.17 42.93 59.52 42.93 12.83 0 24.85-3.79 34.87-10.47v-108.15z" fill="url(#4cf5bf24-f5a4-4298-be4a-95d26026a39e)"/><g><path d="m252.876 309.586 24.366-76.756-27.692-94.334-24.366 76.756z" fill="url(#8d82be41-747d-44b9-8e96-7b2b9c34c163)"/><path d="m217.917 419.706 24.367-76.756-27.691-94.335-24.367 76.757z" fill="url(#751e3174-1c5b-42ef-8413-2509056f3901)"/></g><path d="m49.539 95.38c-6.66-22.72-2.35-46.61 11.83-65.56 14.19-18.95 35.9-29.82 59.58-29.82h161.68c23.67 0 45.38 10.87 59.57 29.82 2.99 4 5.55 8.21 7.64 12.59h-75.99c-6.75 0-13.35.88-19.66 2.59h-133.24c-9.36 0-17.94 4.3-23.55 11.79s-7.31 16.93-4.68 25.91l58.43 199.04c3.46 11.81 13.88 12.72 16.99 12.72 2.09 0 7.43-.41 11.78-4.21 2.16-1.88 4.07-4.6 5.22-8.51l19.59-66.74 10.19-34.71 9.99-34.03c2.94-10 12.22-16.42 22.17-16.16 1.91.05 3.85.35 5.76.91 11.92 3.5 18.75 16 15.25 27.92l-6.27 21.36-23.45 79.88-10.05 34.24c-.05.16-.09.31-.14.47-5.53 18.32-18.59 32.49-35.28 39.58-7.63 3.24-16 5-24.76 5-28.08 0-52.26-18.1-60.17-45.05z" fill="url(#c2c46544-7a40-48ae-b0d2-bc26806a131e)"/><path d="m355.919 87.41c-.48 2.66-1.11 5.32-1.89 7.97l-58.57 199.52-19.85 67.63-9.26 31.54c-1.39 4.75-3.08 9.33-5.03 13.72-7.5 16.85-19.04 30.99-33.9 41.38-.01.01-.01.02-.02.02-17.21 12.04-37.7 18.4-59.26 18.4-21.55 0-42.04-6.36-59.25-18.4-18.75-13.11-32.21-32.17-38.95-55.12l-69.02-235.14c-3.5-11.92 3.32-24.42 15.25-27.92 11.92-3.5 24.43 3.33 27.92 15.25l69.03 235.14c8.91 30.37 34.27 41.19 55.02 41.19 15.13 0 32.7-5.75 44.57-20.63 4.41-5.53 8.04-12.33 10.46-20.56l15.2-51.79 10.19-34.71 23.45-79.89 37.46-127.6z" fill="url(#0ae22869-f5b4-4cff-a5f5-1f5677483168)"/><path d="m281.993 181h46.901l25.134-85.62c.78-2.65 1.41-5.31 1.89-7.97h-46.45z" fill="url(#913cab71-0395-432e-8bbc-622d01d062de)"/></g></svg>