<svg id="Capa_1" enable-background="new 0 0 510 510" height="16px" viewBox="0 0 510 510" width="16px" xmlns="http://www.w3.org/2000/svg" xmlns:xlink="http://www.w3.org/1999/xlink" fill="currentColor"><linearGradient id="lg1"><stop offset="0" stop-color="#fee45a"></stop><stop offset="1" stop-color="#fea613"></stop></linearGradient><linearGradient id="SVGID_1_" gradientUnits="userSpaceOnUse" x1="90.537" x2="339.03" xlink:href="#lg1" y1="185.355" y2="433.847"></linearGradient><linearGradient id="SVGID_00000018219044217534082570000017967355203653950629_" gradientUnits="userSpaceOnUse" x1="249.957" x2="268.957" xlink:href="#lg1" y1="196.487" y2="134.487"></linearGradient><linearGradient id="lg2"><stop offset="0" stop-color="#fea613" stop-opacity="0"></stop><stop offset="1" stop-color="#e94444"></stop></linearGradient><linearGradient id="SVGID_00000132807890956760324970000015677321694479492244_" gradientUnits="userSpaceOnUse" x1="91.646" x2="91.646" xlink:href="#lg2" y1="371.346" y2="453.823"></linearGradient><linearGradient id="SVGID_00000089545857352983760160000000901342574491755154_" gradientUnits="userSpaceOnUse" x1="289.744" x2="289.744" xlink:href="#lg2" y1="437" y2="517.306"></linearGradient><linearGradient id="SVGID_00000002347558789483817820000011004783598207163812_" gradientUnits="userSpaceOnUse" x1="191.188" x2="146.339" xlink:href="#lg2" y1="412.146" y2="367.297"></linearGradient><linearGradient id="lg3"><stop offset="0" stop-color="#d9b1ee"></stop><stop offset="1" stop-color="#814aa0"></stop></linearGradient><linearGradient id="SVGID_00000059309576934295532440000015051340182180908707_" gradientTransform="matrix(.951 -.308 .308 .951 -84.571 75.73)" gradientUnits="userSpaceOnUse" x1="137.744" x2="207.45" xlink:href="#lg3" y1="268.631" y2="338.337"></linearGradient><linearGradient id="SVGID_00000001623937759557596030000014335048567603748284_" gradientUnits="userSpaceOnUse" x1="302.682" x2="302.682" xlink:href="#lg2" y1="323.333" y2="249.764"></linearGradient><linearGradient id="SVGID_00000115514571568138436980000002777774102025833886_" gradientUnits="userSpaceOnUse" x1="374.914" x2="442.594" y1="103.528" y2="171.208"><stop offset="0" stop-color="#fd3581"></stop><stop offset="1" stop-color="#972437"></stop></linearGradient><linearGradient id="SVGID_00000169521786643300587130000011080235622573952404_" gradientUnits="userSpaceOnUse" x1="471.868" x2="471.868" y1="36.667" y2="89.401"><stop offset="0" stop-color="#972437" stop-opacity="0"></stop><stop offset="1" stop-color="#42210b"></stop></linearGradient><linearGradient id="SVGID_00000121244013694296162210000010732796790358794112_" gradientTransform="matrix(.881 .473 -.473 .881 -1270.116 518.465)" gradientUnits="userSpaceOnUse" x1="990.603" x2="954.605" xlink:href="#lg3" y1="-1035.56" y2="-972.563"></linearGradient><g><path d="m381.395 180.03c0-20.287-13.11-38.248-32.432-44.432l-158.736-51.081c-4.597-1.471-9.394-2.22-14.22-2.22-25.765 0-46.652 20.887-46.652 46.652v153.658c-24.334-3.932-53.224 2.457-78.922 19.634-45.196 30.209-63.382 82.303-40.622 116.354 22.761 34.052 77.85 37.166 123.045 6.956 32.676-21.841 51.222-55.119 50.394-84.75h.039v-159.972c0-7.966 7.755-13.627 15.343-11.199l120.653 38.893c4.87 1.559 8.174 6.086 8.174 11.199v126.565c-24.334-3.932-53.224 2.457-78.922 19.634-45.196 30.21-63.382 82.304-40.622 116.355 22.761 34.052 77.85 37.166 123.045 6.956 32.677-21.841 51.222-55.119 50.394-84.75h.039v-224.452z" fill="url(#SVGID_1_)"></path><path d="m198.63 169.63c-7.58-2.43-15.34 3.23-15.34 11.2v-41.15c0-7.97 7.76-13.63 15.34-11.2l120.66 38.89c4.87 1.56 8.17 6.09 8.17 11.2v41.15c0-5.11-3.3-9.64-8.17-11.2z" fill="url(#SVGID_00000018219044217534082570000017967355203653950629_)"></path><path d="m9.811 418.595c22.761 34.052 77.85 37.166 123.045 6.956 32.676-21.841 51.222-55.119 50.394-84.75h.039v-2.801h-168.359c-17.243 26.972-20.343 57.819-5.119 80.595z" fill="url(#SVGID_00000132807890956760324970000015677321694479492244_)"></path><path d="m381.356 404.531h-170.081c-15.677 26.275-18.05 55.767-3.359 77.745 22.761 34.052 77.85 37.166 123.045 6.956 32.659-21.829 51.201-55.082 50.395-84.701z" fill="url(#SVGID_00000089545857352983760160000000901342574491755154_)"></path><path d="m183.29 336.216-68.032 68.032 19.793 19.793c31.306-21.845 49.009-54.281 48.2-83.239h.039z" fill="url(#SVGID_00000002347558789483817820000011004783598207163812_)"></path><path d="m112.513 379.583 42.405-66.993c2.719-4.296 1.159-10-3.369-12.313l-16.306-8.33c-7.752-3.96-7.988-14.952-.412-19.24l87.8-49.707c17.988-10.183 37.632 10.452 26.578 27.918l-42.405 66.993c-2.719 4.296-1.159 10.001 3.369 12.314l16.305 8.329c7.752 3.96 7.987 14.952.412 19.241l-87.8 49.706c-17.987 10.182-37.632-10.453-26.577-27.918z" fill="url(#SVGID_00000059309576934295532440000015051340182180908707_)"></path><path d="m381.395 224.238h-53.935v122.049c-24.334-3.932-53.224 2.457-78.922 19.634-9.402 6.285-17.631 13.518-24.569 21.338h157.427v-163.021z" fill="url(#SVGID_00000001623937759557596030000014335048567603748284_)"></path><path d="m510 34.403c0 24.78-24.149 42.368-47.734 34.766l-17.366-5.598c-5.525-1.769-11.165 2.351-11.165 8.152v116.435h-.029c.604 21.566-12.898 45.79-36.677 61.686-32.899 21.989-72.997 19.718-89.563-5.066s-3.326-62.698 29.566-84.686c18.706-12.505 39.734-17.156 57.443-14.295v-111.835c0-9.375 3.799-17.869 9.95-24.012 6.142-6.151 14.637-9.95 24.011-9.95 3.508 0 7.002.546 10.35 1.616l61.821 19.897c5.598 1.802 9.393 7.01 9.393 12.89z" fill="url(#SVGID_00000115514571568138436980000002777774102025833886_)"></path><path d="m444.9 63.571 17.366 5.598c23.585 7.602 47.734-9.986 47.734-34.766 0-5.88-3.795-11.088-9.392-12.89l-61.822-19.897c-1.653-.528-3.343-.927-5.051-1.197v71.304c0-5.801 5.641-9.921 11.165-8.152z" fill="url(#SVGID_00000169521786643300587130000011080235622573952404_)"></path><path d="m95.936 130.362-15.663-38.669c-1.004-2.48.339-5.286 2.901-6.059l9.224-2.781c4.385-1.322 5.54-6.991 2.021-9.923l-40.79-33.982c-8.357-6.962-20.466 1.877-16.383 11.958l15.663 38.668c1.004 2.48-.339 5.287-2.901 6.059l-9.224 2.781c-4.385 1.322-5.54 6.991-2.021 9.923l40.79 33.982c8.357 6.962 20.466-1.877 16.383-11.957z" fill="url(#SVGID_00000121244013694296162210000010732796790358794112_)"></path></g></svg>