<svg id="Layer_12" enable-background="new 0 0 512 512" viewBox="0 0 512 512" xmlns="http://www.w3.org/2000/svg" xmlns:xlink="http://www.w3.org/1999/xlink" fill="currentColor" width="16px" height="16px"><linearGradient id="SVGID_1_" gradientTransform="matrix(1 0 0 -1 0 514)" gradientUnits="userSpaceOnUse" x1="123.743" x2="442.931" y1="390.257" y2="71.069"><stop offset="0" stop-color="#aeffd1"></stop><stop offset=".1199" stop-color="#a3f9ca"></stop><stop offset=".3284" stop-color="#86eab9"></stop><stop offset=".6004" stop-color="#58d19d"></stop><stop offset=".9223" stop-color="#19af76"></stop><stop offset="1" stop-color="#09a76d"></stop></linearGradient><linearGradient id="lg1"><stop offset="0" stop-color="#02905d" stop-opacity="0"></stop><stop offset=".1736" stop-color="#028e5b" stop-opacity=".048"></stop><stop offset=".381" stop-color="#028857" stop-opacity=".188"></stop><stop offset=".6055" stop-color="#027f51" stop-opacity=".42"></stop><stop offset=".8407" stop-color="#027248" stop-opacity=".741"></stop><stop offset="1" stop-color="#026841"></stop></linearGradient><linearGradient id="SVGID_00000093154441904309162730000005828219513902269084_" gradientTransform="matrix(1 0 0 -1 0 514)" gradientUnits="userSpaceOnUse" x1="256" x2="256" xlink:href="#lg1" y1="74.406" y2="-2.851"></linearGradient><linearGradient id="SVGID_00000108281137160010978720000013437741824373197739_" gradientTransform="matrix(1 0 0 -1 0 514)" gradientUnits="userSpaceOnUse" x1="443.059" x2="528.844" xlink:href="#lg1" y1="258" y2="258"></linearGradient><linearGradient id="SVGID_00000066475435640771568960000012019621119229524132_" gradientTransform="matrix(1 0 0 -1 0 514)" gradientUnits="userSpaceOnUse" x1="380.376" x2="446.673" xlink:href="#lg1" y1="133.624" y2="67.327"></linearGradient><linearGradient id="SVGID_00000036237925775020188510000006534326011845568387_" gradientTransform="matrix(1 0 0 -1 0 514)" gradientUnits="userSpaceOnUse" x1="180.927" x2="296.412" y1="296.987" y2="237.106"><stop offset="0" stop-color="#fff"></stop><stop offset="1" stop-color="#fffaf8"></stop></linearGradient><linearGradient id="lg2"><stop offset="0" stop-color="#aeffd1" stop-opacity="0"></stop><stop offset=".1188" stop-color="#a3f9ca" stop-opacity=".064"></stop><stop offset=".3253" stop-color="#87eab9" stop-opacity=".234"></stop><stop offset=".5948" stop-color="#59d29d" stop-opacity=".511"></stop><stop offset=".9137" stop-color="#1bb078" stop-opacity=".89"></stop><stop offset="1" stop-color="#09a76d"></stop></linearGradient><linearGradient id="SVGID_00000165218940791802331820000008993503678468977554_" gradientTransform="matrix(1 0 0 -1 0 514)" gradientUnits="userSpaceOnUse" x1="248.828" x2="212.464" xlink:href="#lg2" y1="254.05" y2="254.05"></linearGradient><linearGradient id="SVGID_00000066509148848107195530000018035170399171043479_" gradientTransform="matrix(1 0 0 -1 0 514)" gradientUnits="userSpaceOnUse" x1="198.927" x2="165.392" xlink:href="#lg2" y1="395.332" y2="395.332"></linearGradient><linearGradient id="SVGID_00000121276120575197929090000000183077908342718621_" gradientTransform="matrix(1 0 0 -1 0 514)" gradientUnits="userSpaceOnUse" x1="222.895" x2="198.694" xlink:href="#lg2" y1="405.622" y2="429.822"></linearGradient><linearGradient id="SVGID_00000180327851870189559360000010028892241722019254_" gradientTransform="matrix(1 0 0 -1 0 514)" gradientUnits="userSpaceOnUse" x1="235.759" x2="235.759" xlink:href="#lg2" y1="437.257" y2="460.08"></linearGradient><g><g><path d="m222.5 0h266.9c12.5 0 22.6 10.1 22.6 22.6v266.9c0 122.8-99.7 222.5-222.5 222.5h-266.9c-12.5 0-22.6-10.1-22.6-22.6v-266.9c0-122.8 99.7-222.5 222.5-222.5z" fill="url(#SVGID_1_)"></path><path d="m0 272.8v216.6c0 12.5 10.1 22.6 22.6 22.6h266.9c122.9 0 222.5-99.6 222.5-222.5v-16.7z" fill="url(#SVGID_00000093154441904309162730000005828219513902269084_)"></path><path d="m489.4 0h-266.9c-6.7 0-13.4.3-19.9.9v511.1h86.9c122.9 0 222.5-99.6 222.5-222.5v-266.9c0-12.5-10.1-22.6-22.6-22.6z" fill="url(#SVGID_00000108281137160010978720000013437741824373197739_)"></path><path d="m512 289.5v-266.9c0-12.5-10.1-22.6-22.6-22.6h-34l-455.4 455.4v34c0 12.5 10.1 22.6 22.6 22.6h266.9c122.9 0 222.5-99.6 222.5-222.5z" fill="url(#SVGID_00000066475435640771568960000012019621119229524132_)"></path></g><g><path d="m288.2 56c-.1 0-.1 0-.2 0h-.1-55.6c-4.5 0-8.2 3.3-8.9 7.7-1.6 11.2-6.7 21.2-14.1 29.1-8.1 8.5-18.9 14.4-31.1 16.2-4.4.6-7.8 4.4-7.8 8.9v55.6c0 4.6 3.9 8.2 8.5 7.9 13-.9 25.5-3.7 37.1-8.3v275.1c0 4.4 3.5 7.9 7.9 7.9h64.2c4.4 0 7.9-3.5 7.9-7.9v-384.3c.1-4.4-3.4-7.9-7.8-7.9z" fill="url(#SVGID_00000036237925775020188510000006534326011845568387_)"></path><g opacity=".55"><path d="m296.1 63.9v384.2c0 4.4-3.5 7.9-7.9 7.9h-64.2c-4.4 0-7.9-3.5-7.9-7.9v-275.1c44.3-17.3 76.4-59.1 79.7-108.6z" fill="url(#SVGID_00000165218940791802331820000008993503678468977554_)"></path><path d="m287.9 56h-55.6c-4.5 0-8.2 3.3-8.9 7.7-1.6 11.2-6.7 21.2-14.1 29.1-8.1 8.5-18.9 14.4-31.1 16.2-4.4.6-7.8 4.4-7.8 8.9v55.6c0 4.6 3.9 8.2 8.5 7.9 62.5-4.2 112.7-54.3 116.9-116.9.3-4.6-3.3-8.5-7.9-8.5z" fill="url(#SVGID_00000066509148848107195530000018035170399171043479_)"></path><path d="m287.9 56h-55.6c-4.5 0-8.2 3.3-8.9 7.7-1.6 11.2-6.7 21.2-14.1 29.1-8.1 8.5-18.9 14.4-31.1 16.2-4.4.6-7.8 4.4-7.8 8.9v55.6c0 4.6 3.9 8.2 8.5 7.9 62.5-4.2 112.7-54.3 116.9-116.9.3-4.6-3.3-8.5-7.9-8.5z" fill="url(#SVGID_00000121276120575197929090000000183077908342718621_)"></path><path d="m288.2 56c-.1 0-.1 0-.2 0h-.1-55.6c-4.5 0-8.2 3.3-8.9 7.7-1.6 11.2-6.7 21.2-14.1 29.1-8.1 8.5-18.9 14.4-31.1 16.2-1 .2-2 .5-2.9.9v33.9h120.7v-79.9c.1-4.4-3.4-7.9-7.8-7.9z" fill="url(#SVGID_00000180327851870189559360000010028892241722019254_)"></path></g></g></g></svg>