<svg id="Capa_1" enable-background="new 0 0 510 510" height="16px" viewBox="0 0 510 510" width="16px" xmlns="http://www.w3.org/2000/svg" xmlns:xlink="http://www.w3.org/1999/xlink" fill="currentColor"><linearGradient id="SVGID_1_" gradientUnits="userSpaceOnUse" x1="-70.698" x2="468.801" y1="-3.44" y2="432.059"><stop offset="0" stop-color="#6e61b6"></stop><stop offset="1" stop-color="#433f43"></stop></linearGradient><linearGradient id="lg1"><stop offset="0" stop-color="#433f43" stop-opacity="0"></stop><stop offset="1" stop-color="#1a1a1a"></stop></linearGradient><linearGradient id="SVGID_00000093863284494260455430000009784226207787489680_" gradientUnits="userSpaceOnUse" x1="333.742" x2="402.775" xlink:href="#lg1" y1="254.996" y2="254.996"></linearGradient><linearGradient id="SVGID_00000150101671622426505130000018356664983686580386_" gradientUnits="userSpaceOnUse" x1="218.088" x2="271.754" xlink:href="#lg1" y1="303.834" y2="303.834"></linearGradient><linearGradient id="SVGID_00000130628289480664213100000003473422360346993828_" gradientUnits="userSpaceOnUse" x1="198.323" x2="198.323" xlink:href="#lg1" y1="461.036" y2="513.367"></linearGradient><linearGradient id="SVGID_00000182527405610080556950000012944467404945040017_" gradientUnits="userSpaceOnUse" x1="268.299" x2="230.299" xlink:href="#lg1" y1="488.184" y2="407.517"></linearGradient><linearGradient id="SVGID_00000062881544278271780180000017983220688150039701_" gradientTransform="matrix(.906 -.423 .423 .906 -315.183 245.222)" gradientUnits="userSpaceOnUse" x1="578.216" x2="718.285" y1="323.189" y2="323.189"><stop offset="0" stop-color="#f9f7f8"></stop><stop offset="1" stop-color="#e5e1e5"></stop></linearGradient><linearGradient id="lg2"><stop offset="0" stop-color="#d9b1ee"></stop><stop offset=".1228" stop-color="#dba3e3"></stop><stop offset=".3507" stop-color="#e381c8"></stop><stop offset=".6587" stop-color="#ef499b"></stop><stop offset="1" stop-color="#fe0364"></stop></linearGradient><linearGradient id="SVGID_00000079478639214945128840000015376981979828322468_" gradientUnits="userSpaceOnUse" x1="363.961" x2="432.628" xlink:href="#lg2" y1="211.814" y2="369.814"></linearGradient><linearGradient id="lg3"><stop offset="0" stop-color="#a82975" stop-opacity="0"></stop><stop offset="1" stop-color="#a82975"></stop></linearGradient><linearGradient id="SVGID_00000127012604398058741070000013368277305866045319_" gradientUnits="userSpaceOnUse" x1="389.439" x2="389.439" xlink:href="#lg3" y1="318" y2="359.419"></linearGradient><linearGradient id="SVGID_00000137825203780484911800000002044323472822988218_" gradientUnits="userSpaceOnUse" x1="440.667" x2="492.004" xlink:href="#lg3" y1="300.261" y2="300.261"></linearGradient><linearGradient id="lg4"><stop offset="0" stop-color="#9b8e99" stop-opacity="0"></stop><stop offset=".3465" stop-color="#978a95" stop-opacity=".347"></stop><stop offset=".7135" stop-color="#8a7f88" stop-opacity=".714"></stop><stop offset="1" stop-color="#7b7179"></stop></linearGradient><linearGradient id="SVGID_00000015316816074467018410000001782567204065604772_" gradientTransform="matrix(.906 -.423 .423 .906 -315.183 245.222)" gradientUnits="userSpaceOnUse" x1="635.39" x2="635.39" xlink:href="#lg4" y1="384.099" y2="435.285"></linearGradient><linearGradient id="SVGID_00000107575522053730164150000015768600807809463225_" gradientTransform="matrix(.906 -.423 .423 .906 -315.183 245.222)" gradientUnits="userSpaceOnUse" x1="695.65" x2="746.759" xlink:href="#lg4" y1="325.001" y2="333.402"></linearGradient><linearGradient id="SVGID_00000023249941284550558170000014304687612136594341_" gradientUnits="userSpaceOnUse" x1="215.275" x2="262.987" xlink:href="#lg2" y1="323.673" y2="371.385"></linearGradient><linearGradient id="SVGID_00000072268519017437246270000010878099135827583142_" gradientUnits="userSpaceOnUse" x1="232.928" x2="287.237" xlink:href="#lg3" y1="346.02" y2="400.33"></linearGradient><linearGradient id="SVGID_00000098905026271071034510000015777820797937639082_" gradientUnits="userSpaceOnUse" x1="242.824" x2="242.824" xlink:href="#lg3" y1="361.095" y2="422.476"></linearGradient><g><g><path d="m363.856 0h-331.066c-23.023 0-32.79 25.116-32.79 48.139v64.212c0 8.107 6.572 14.678 14.678 14.678h8.302c8.107 0 14.678-6.572 14.678-14.678 0-8.107 6.572-14.678 14.678-14.678h91.567v360.917c0 7.59-6.153 13.743-13.743 13.743-7.59 0-13.743 6.153-13.743 13.743v10.172c0 7.59 6.153 13.743 13.743 13.743h136.323c7.59 0 13.743-6.153 13.743-13.743v-10.172c0-7.59-6.153-13.743-13.743-13.743-7.59 0-13.743-6.153-13.743-13.743v-360.917h91.567c8.107 0 14.678 6.572 14.678 14.678 0 8.107 6.572 14.678 14.678 14.678h8.302c8.107 0 14.678-6.572 14.678-14.678v-64.212c.003-23.023-9.764-48.139-32.787-48.139z" fill="url(#SVGID_1_)"></path><path d="m363.856 0h-219.951v97.673 360.917 51.402h122.58c7.59 0 13.743-6.153 13.743-13.743v-10.172c0-7.59-6.153-13.743-13.743-13.743s-13.743-6.153-13.743-13.743v-360.918h91.567c8.107 0 14.678 6.572 14.678 14.678s6.572 14.679 14.678 14.679h8.302c8.107 0 14.678-6.572 14.678-14.679v-64.212c.001-23.023-9.766-48.139-32.789-48.139z" fill="url(#SVGID_00000093863284494260455430000009784226207787489680_)"></path><path d="m280.228 486.083v10.169c0 7.584-6.143 13.749-13.749 13.749h-122.572v-412.332h108.824v360.917c0 7.584 6.165 13.749 13.749 13.749 7.605-.001 13.748 6.143 13.748 13.748z" fill="url(#SVGID_00000150101671622426505130000018356664983686580386_)"></path><path d="m143.905 321.22v137.37c0 7.59-6.153 13.743-13.743 13.743s-13.743 6.153-13.743 13.743v10.172c0 7.59 6.153 13.743 13.743 13.743h136.323c7.59 0 13.743-6.153 13.743-13.743v-10.172c0-7.59-6.153-13.743-13.743-13.743s-13.743-6.153-13.743-13.743v-137.37z" fill="url(#SVGID_00000130628289480664213100000003473422360346993828_)"></path></g><path d="m197.229 396.236 55.512 55.513v-55.513z" fill="url(#SVGID_00000182527405610080556950000012944467404945040017_)"></path><g><g><g><path d="m437.21 138.963-204.232 95.235c-5.392 2.514-5.285 10.235.186 12.572 6.146 2.625 13.823 5.452 21.72 7.221 8.081 1.809 14.737 7.435 17.943 15.07 17.12 40.771 44.678 76.239 76.641 107.471 11.41 11.15 28.538 14.063 42.996 7.321l95.407-44.489c14.501-6.762 23.23-21.815 22.016-37.768-4.252-55.896-18.065-110.753-50.725-156.819-4.951-6.986-14.192-9.433-21.952-5.814z" fill="url(#SVGID_00000062881544278271780180000017983220688150039701_)"></path><g><path d="m490.333 297.63c-1.302-17.172-3.677-34.226-7.496-50.85-2.594-11.291-15.305-17.18-25.473-11.628-.504.275-1.003.563-1.497.862l-.521.316c-11.935 7.246-26.939 7.124-38.755-.315-12.075-7.291-27.195-7.291-39.27 0-12.075 7.291-27.195 7.292-39.27 0-11.392-7.595-26.147-7.925-37.868-.848l-11.06 6.678c-.606.366-1.227.695-1.863.988-3.997 1.841-6.854 5.594-7.027 9.992-.087 2.222.199 4.413.413 6.61 4.269 2.317 7.683 6.041 9.612 10.635 14.448 34.408 37.706 64.341 64.681 90.699 9.63 9.409 24.084 11.868 36.286 6.178l80.518-37.546c12.205-5.689 19.608-18.345 18.59-31.771z" fill="url(#SVGID_00000079478639214945128840000015376981979828322468_)"></path><path d="m290.26 270.071c14.448 34.408 37.706 64.341 64.681 90.699 9.63 9.409 24.084 11.868 36.286 6.178l80.518-37.546c12.203-5.69 19.606-18.347 18.588-31.773-.788-10.387-1.976-20.73-3.631-30.963h-198.249c.694 1.071 1.303 2.207 1.807 3.405z" fill="url(#SVGID_00000127012604398058741070000013368277305866045319_)"></path><path d="m482.836 246.78c-2.594-11.291-15.305-17.18-25.473-11.628-.504.275-1.003.562-1.497.862l-.521.316c-11.935 7.246-26.939 7.124-38.755-.315-12.075-7.291-27.195-7.291-39.27 0-5.519 3.333-11.675 5.124-17.885 5.41v122.988c9.3 6.291 21.363 7.397 31.79 2.535l80.518-37.546c12.203-5.69 19.606-18.347 18.588-31.773-1.3-17.171-3.675-34.225-7.495-50.849z" fill="url(#SVGID_00000137825203780484911800000002044323472822988218_)"></path></g><path d="m289.526 302.074c16.195 27.281 36.926 51.968 59.942 74.458 11.41 11.149 28.538 14.063 42.996 7.321l95.407-44.489c14.501-6.762 23.23-21.815 22.016-37.768-2.438-32.047-8.028-63.748-18.501-93.65z" fill="url(#SVGID_00000015316816074467018410000001782567204065604772_)"></path><path d="m437.21 138.963-77.773 36.266 85.806 184.012 42.629-19.878c14.501-6.762 23.23-21.815 22.016-37.768-4.252-55.896-18.065-110.753-50.725-156.819-4.952-6.985-14.193-9.432-21.953-5.813z" fill="url(#SVGID_00000107575522053730164150000015768600807809463225_)"></path></g></g></g><g><path d="m231.311 271.669-36.998 63.731c-21.708 37.395 5.272 84.253 48.51 84.253 43.239 0 70.219-46.859 48.51-84.253l-36.997-63.731c-5.13-8.839-17.894-8.839-23.025 0z" fill="url(#SVGID_00000023249941284550558170000014304687612136594341_)"></path><path d="m291.334 335.4-24.898-42.888-79.172 79.172c3.891 25.919 25.899 47.969 55.559 47.969 43.24 0 70.22-46.859 48.511-84.253z" fill="url(#SVGID_00000072268519017437246270000010878099135827583142_)"></path><path d="m194.313 335.4c-21.708 37.395 5.271 84.253 48.51 84.253 43.239 0 70.219-46.859 48.51-84.253l-8.304-14.304h-80.413z" fill="url(#SVGID_00000098905026271071034510000015777820797937639082_)"></path></g></g></svg>