<svg id="65e21f50-6bb4-46a5-a553-19dc972df8f6" enable-background="new 0 0 510 510" height="16px" viewBox="0 0 510 510" width="16px" xmlns="http://www.w3.org/2000/svg" xmlns:xlink="http://www.w3.org/1999/xlink" fill="currentColor"><linearGradient id="14fca42f-8a06-49dd-9fe9-c019e70b8743"><stop offset="0" stop-color="#fef0ae"></stop><stop offset="1" stop-color="#fac600"></stop></linearGradient><linearGradient id="6e2699b8-00b5-4283-9444-b25cd42e3680" gradientUnits="userSpaceOnUse" x1="105.968" x2="363.831" xlink:href="#14fca42f-8a06-49dd-9fe9-c019e70b8743" y1="188.484" y2="379.529"></linearGradient><linearGradient id="d1e52c01-1324-42f1-b5ff-6d5d25e42d10"><stop offset="0" stop-color="#fea613" stop-opacity="0"></stop><stop offset=".2032" stop-color="#fda215" stop-opacity=".203"></stop><stop offset=".4052" stop-color="#fb961b" stop-opacity=".405"></stop><stop offset=".6066" stop-color="#f68225" stop-opacity=".607"></stop><stop offset=".8066" stop-color="#f06633" stop-opacity=".807"></stop><stop offset="1" stop-color="#e94444"></stop></linearGradient><linearGradient id="9d3e1850-f1d8-483b-8ab9-4806f99200dd" gradientUnits="userSpaceOnUse" x1="326.005" x2="394.528" xlink:href="#d1e52c01-1324-42f1-b5ff-6d5d25e42d10" y1="287.652" y2="287.652"></linearGradient><linearGradient id="6d776c20-c76f-4b2f-9331-89644a93efe8" gradientUnits="userSpaceOnUse" x1="289.989" x2="241.318" xlink:href="#d1e52c01-1324-42f1-b5ff-6d5d25e42d10" y1="184.652" y2="184.652"></linearGradient><linearGradient id="62959445-c11c-43bf-b61b-e6efb25a2b96" gradientUnits="userSpaceOnUse" x1="357.323" x2="307.283" xlink:href="#d1e52c01-1324-42f1-b5ff-6d5d25e42d10" y1="144.652" y2="144.652"></linearGradient><linearGradient id="d2f68d33-a935-4c66-bb53-d8bfc26ed336" gradientUnits="userSpaceOnUse" x1="214.464" x2="214.464" xlink:href="#d1e52c01-1324-42f1-b5ff-6d5d25e42d10" y1="463.856" y2="515.545"></linearGradient><linearGradient id="c0c436b4-6773-417c-817b-83e80f7aa49e" gradientUnits="userSpaceOnUse" x1="204.872" x2="137.81" xlink:href="#d1e52c01-1324-42f1-b5ff-6d5d25e42d10" y1="470.303" y2="465.996"></linearGradient><linearGradient id="3c8082de-eead-431d-8f52-a829694c6a3a" gradientUnits="userSpaceOnUse" x1="132.439" x2="108.444" xlink:href="#14fca42f-8a06-49dd-9fe9-c019e70b8743" y1="444.388" y2="482.533"></linearGradient><linearGradient id="02da7b2f-57ad-4a4d-a312-8cf39106c80d" gradientUnits="userSpaceOnUse" x1="335.513" x2="307.513" xlink:href="#d1e52c01-1324-42f1-b5ff-6d5d25e42d10" y1="463.367" y2="304.034"></linearGradient><linearGradient id="be32363b-9b27-4b78-982c-f6295dcc0dc9" gradientUnits="userSpaceOnUse" x1="230.086" x2="472.086" y1="59.656" y2="325.656"><stop offset="0" stop-color="#6e61b6"></stop><stop offset="1" stop-color="#433f43"></stop></linearGradient><linearGradient id="32e2f8cd-0f15-478a-90d5-6615d82918fe"><stop offset="0" stop-color="#433f43" stop-opacity="0"></stop><stop offset="1" stop-color="#1a1a1a"></stop></linearGradient><linearGradient id="2a4e79cb-d3b5-49c8-bd91-4d0c77030e50" gradientUnits="userSpaceOnUse" x1="329.168" x2="329.168" xlink:href="#32e2f8cd-0f15-478a-90d5-6615d82918fe" y1="289" y2="337.094"></linearGradient><linearGradient id="51e25d03-2d85-4996-9fdd-46fa058ba9bd" gradientUnits="userSpaceOnUse" x1="425.323" x2="458.762" xlink:href="#32e2f8cd-0f15-478a-90d5-6615d82918fe" y1="199.641" y2="199.641"></linearGradient><linearGradient id="f55947c3-f78c-40cf-bcf0-cea760179706" gradientUnits="userSpaceOnUse" x1="332.079" x2="332.079" xlink:href="#32e2f8cd-0f15-478a-90d5-6615d82918fe" y1="177" y2="254.162"></linearGradient><linearGradient id="0c752cca-51bd-467a-89fe-294cc3fdf88c" gradientUnits="userSpaceOnUse" x1="363.323" x2="385.323" xlink:href="#32e2f8cd-0f15-478a-90d5-6615d82918fe" y1="126.477" y2="126.477"></linearGradient><g><g><g><g><path d="m356.605 510h-208.57c-51.988 0-94.133-42.145-94.133-94.133v-332.143c0-10.173 8.247-18.42 18.42-18.42h284.283c10.173 0 18.42 8.247 18.42 18.42v407.856c0 10.173-8.247 18.42-18.42 18.42z" fill="url(#6e2699b8-00b5-4283-9444-b25cd42e3680)"></path><path d="m356.605 65.304h-163.424v444.696h163.424c10.173 0 18.42-8.247 18.42-18.42v-407.856c0-10.173-8.247-18.42-18.42-18.42z" fill="url(#9d3e1850-f1d8-483b-8ab9-4806f99200dd)"></path><path d="m356.605 65.304h-116.616v238.696h135.036v-220.276c0-10.173-8.247-18.42-18.42-18.42z" fill="url(#6d776c20-c76f-4b2f-9331-89644a93efe8)"></path><path d="m356.605 65.304h-61.153v158.696h79.573v-140.276c0-10.173-8.247-18.42-18.42-18.42z" fill="url(#62959445-c11c-43bf-b61b-e6efb25a2b96)"></path><path d="m53.903 340.807v75.06c0 51.988 42.145 94.133 94.133 94.133h208.57c10.173 0 18.42-8.247 18.42-18.42v-150.773z" fill="url(#d2f68d33-a935-4c66-bb53-d8bfc26ed336)"></path><path d="m143.517 422.836v87.054c1.498.071 3.003.11 4.518.11h82.646z" fill="url(#c0c436b4-6773-417c-817b-83e80f7aa49e)"></path><path d="m148.035 470.391c0 21.875 17.733 39.609 39.609 39.609h-39.609c-51.988 0-94.133-42.145-94.133-94.133h74.715c10.724 0 19.418 8.694 19.418 19.418z" fill="url(#3c8082de-eead-431d-8f52-a829694c6a3a)"></path></g></g></g><path d="m375.025 439.036v-135.036h-135.036z" fill="url(#02da7b2f-57ad-4a4d-a312-8cf39106c80d)"></path><g><path d="m329.168 342.313c-69.989 0-126.93-56.941-126.93-126.93v-141.548c0-40.713 33.122-73.835 73.835-73.835h42.735c40.713 0 73.835 33.122 73.835 73.835v118.5c0 33.395-27.169 60.564-60.564 60.564s-60.564-27.169-60.564-60.564v-104.344c0-13.551 10.985-24.537 24.536-24.537s24.536 10.985 24.536 24.537v104.343c0 6.336 5.155 11.491 11.491 11.491s11.491-5.155 11.491-11.491v-118.5c0-13.654-11.109-24.762-24.762-24.762h-42.735c-13.654 0-24.762 11.108-24.762 24.762v141.548c0 42.93 34.926 77.857 77.857 77.857s77.857-34.927 77.857-77.857v-133.159c0-13.551 10.985-24.536 24.536-24.536s24.536 10.985 24.536 24.536v133.16c.001 69.989-56.939 126.93-126.928 126.93z" fill="url(#be32363b-9b27-4b78-982c-f6295dcc0dc9)"></path><g><path d="m407.024 134v81.383c0 42.93-34.926 77.857-77.857 77.857s-77.857-34.927-77.857-77.857v-81.383h-49.073v81.383c0 69.989 56.941 126.93 126.93 126.93s126.93-56.941 126.93-126.93v-81.383z" fill="url(#2a4e79cb-d3b5-49c8-bd91-4d0c77030e50)"></path><path d="m431.561 57.687c-13.551 0-24.536 10.985-24.536 24.536v133.16c0 38.329-27.848 70.254-64.369 76.663v49.55c63.671-6.757 113.442-60.779 113.442-126.213v-133.16c-.001-13.551-10.986-24.536-24.537-24.536z" fill="url(#51e25d03-2d85-4996-9fdd-46fa058ba9bd)"></path><path d="m332.079 252.899c33.396 0 60.564-27.169 60.564-60.564v-58.335h-49.073v58.334c0 6.336-5.155 11.491-11.491 11.491s-11.491-5.155-11.491-11.491v-58.334h-49.073v58.334c-.001 33.396 27.168 60.565 60.564 60.565z" fill="url(#f55947c3-f78c-40cf-bcf0-cea760179706)"></path><g><path d="m320.989 49.175c12.635 1.109 22.581 11.742 22.581 24.66v118.5c0 6.336-5.155 11.491-11.491 11.491-5.31 0-9.777-3.625-11.089-8.527v56.564c3.598.669 7.301 1.036 11.089 1.036 33.396 0 60.564-27.169 60.564-60.564v-118.5c0-39.981-31.948-72.618-71.654-73.779z" fill="url(#0c752cca-51bd-467a-89fe-294cc3fdf88c)"></path></g></g></g></g></svg>