<svg id="687f5afe-b65f-4f92-95ed-da3e837485a1" enable-background="new 0 0 512 512" viewBox="0 0 512 512" xmlns="http://www.w3.org/2000/svg" xmlns:xlink="http://www.w3.org/1999/xlink" fill="currentColor" width="16px" height="16px"><linearGradient id="0b67c587-0264-4478-b2b5-62ff1bfd0096" gradientUnits="userSpaceOnUse" x1="116.527" x2="424.789" y1="218.467" y2="347.568"><stop offset="0" stop-color="#62dbfb"></stop><stop offset=".1912" stop-color="#57d5fa"></stop><stop offset=".5232" stop-color="#3bc5f7"></stop><stop offset=".954" stop-color="#0dabf2"></stop><stop offset="1" stop-color="#08a9f1"></stop></linearGradient><linearGradient id="78909ac5-500b-49c8-8f65-975b4b970673"><stop offset="0" stop-color="#0593fc" stop-opacity="0"></stop><stop offset=".6831" stop-color="#0389fc" stop-opacity=".683"></stop><stop offset="1" stop-color="#0182fc"></stop></linearGradient><linearGradient id="85e42fa3-ce39-4b01-8c1e-53402107f51c" gradientUnits="userSpaceOnUse" x1="384.01" x2="442.622" xlink:href="#lg1" y1="275.461" y2="275.461"></linearGradient><linearGradient id="6649e3af-3509-424a-a6e4-65b133244782" gradientUnits="userSpaceOnUse" x1="324.792" x2="309.108" xlink:href="#lg1" y1="423.185" y2="457.403"></linearGradient><linearGradient id="085b7cab-f54e-4d37-8f36-cbac906ebd71" gradientTransform="matrix(-1 0 0 1 700.84 0)" gradientUnits="userSpaceOnUse" x1="513.633" x2="497.95" xlink:href="#lg1" y1="423.185" y2="457.403"></linearGradient><linearGradient id="db3ed3b7-f1e5-4476-9b6f-64ac9a0dd09d" gradientUnits="userSpaceOnUse" x1="375.891" x2="231.535" xlink:href="#lg1" y1="325.53" y2="198.282"></linearGradient><linearGradient id="3b8ed191-333f-4188-99f0-ed155d601a8e" gradientUnits="userSpaceOnUse" x1="139.698" x2="396.702" y1="162.323" y2="269.957"><stop offset="0" stop-color="#eaf9fa"></stop><stop offset="1" stop-color="#b3dafe"></stop></linearGradient><linearGradient id="cf585893-3cc6-4230-9396-f2dedfecdd54"><stop offset="0" stop-color="#7bacdf" stop-opacity="0"></stop><stop offset="1" stop-color="#7bacdf"></stop></linearGradient><linearGradient id="60177253-e541-42bf-94f8-15486cce3c6a" gradientUnits="userSpaceOnUse" x1="358.972" x2="406.12" xlink:href="#lg2" y1="209.89" y2="209.89"></linearGradient><linearGradient id="0804c411-3617-4918-9e42-0d2c1cb4d976" gradientUnits="userSpaceOnUse" x1="311.336" x2="298.721" xlink:href="#lg2" y1="348.337" y2="375.862"></linearGradient><linearGradient id="3c8ffcc4-1932-4ae2-a8c6-28d37bf5058d" gradientTransform="matrix(-1 0 0 1 700.84 0)" gradientUnits="userSpaceOnUse" x1="500.178" x2="487.562" xlink:href="#lg2" y1="348.337" y2="375.862"></linearGradient><linearGradient id="bf5bb1e6-c31f-4a48-888c-605a4620b38d" gradientUnits="userSpaceOnUse" x1="306.382" x2="281.966" xlink:href="#lg2" y1="85.109" y2="96.336"></linearGradient><linearGradient id="a18b15db-2955-4a71-a21e-fa0ab0e9aeb4" gradientUnits="userSpaceOnUse" x1="317.73" x2="283.512" xlink:href="#lg2" y1="241.332" y2="198.085"></linearGradient><linearGradient id="fcace964-435f-4e1d-bf64-1e7e072e288c" gradientUnits="userSpaceOnUse" x1="208.003" x2="280.716" y1="136.677" y2="197.984"><stop offset="0" stop-color="#fef0ae"></stop><stop offset="1" stop-color="#fbc56d"></stop></linearGradient><linearGradient id="2df6f979-a8bf-401c-b839-343ada88235d"><stop offset="0" stop-color="#dc8758" stop-opacity="0"></stop><stop offset=".2153" stop-color="#dd8654" stop-opacity=".215"></stop><stop offset=".4291" stop-color="#e28448" stop-opacity=".429"></stop><stop offset=".6424" stop-color="#ea8034" stop-opacity=".642"></stop><stop offset=".8543" stop-color="#f47b18" stop-opacity=".854"></stop><stop offset="1" stop-color="#fe7701"></stop></linearGradient><linearGradient id="fae531ad-009c-4f3c-ac2c-6ed208a8d8ec" gradientUnits="userSpaceOnUse" x1="155.018" x2="314.39" xlink:href="#lg3" y1="69.339" y2="228.71"></linearGradient><linearGradient id="3d1a50cb-f7ef-4145-a1c8-721af8be80e2" gradientUnits="userSpaceOnUse" x1="252.287" x2="222.821" xlink:href="#lg3" y1="160.955" y2="119.609"></linearGradient><linearGradient id="76add579-f2e5-4a94-88d8-badf6810d10a" gradientUnits="userSpaceOnUse" x1="239.734" x2="202.665" xlink:href="#lg3" y1="174.96" y2="190.644"></linearGradient><linearGradient id="e3c4db2c-11ad-4cf2-ada9-6e42dc075f39" gradientUnits="userSpaceOnUse" x1="300.822" x2="358.564" xlink:href="#lg3" y1="160.886" y2="184.41"></linearGradient><linearGradient id="a64661f8-99d3-459d-b906-be61089ccb32" gradientUnits="userSpaceOnUse" x1="280.188" x2="273.06" xlink:href="#lg3" y1="227.412" y2="243.096"></linearGradient><linearGradient id="2bf8f737-d7a6-4441-8f73-6b1d74309b32" gradientTransform="matrix(-1 0 0 1 624.317 0)" gradientUnits="userSpaceOnUse" x1="392.505" x2="385.376" xlink:href="#lg3" y1="227.412" y2="243.096"></linearGradient><g><g><path d="m292.749 448.229 125.332 61.833c12.33 6.083 26.761-2.889 26.761-16.638v-427.394c0-14.972-12.137-27.109-27.109-27.109h-323.466c-14.972 0-27.109 12.137-27.109 27.109v427.394c0 13.749 14.431 22.721 26.761 16.638l125.331-61.833c23.167-11.43 50.333-11.43 73.499 0z" fill="url(#0b67c587-0264-4478-b2b5-62ff1bfd0096)"></path><path d="m417.733 38.921h-161.733v400.735c12.583 0 25.166 2.857 36.749 8.572l125.332 61.833c12.33 6.083 26.761-2.889 26.761-16.638v-427.393c0-14.972-12.137-27.109-27.109-27.109z" fill="url(#85e42fa3-ce39-4b01-8c1e-53402107f51c)"></path><path d="m444.84 237.01v256.41c0 13.75-14.43 22.72-26.76 16.64l-125.33-61.83c-11.58-5.72-24.17-8.57-36.75-8.57v-202.65z" fill="url(#6649e3af-3509-424a-a6e4-65b133244782)"></path><path d="m67.158 237.01v256.41c0 13.75 14.43 22.72 26.76 16.64l125.33-61.83c11.58-5.72 24.17-8.57 36.75-8.57v-202.65z" fill="url(#085b7cab-f54e-4d37-8f36-cbac906ebd71)"></path></g><path d="m417.733 38.921h-64.646v132.711l-244.182 244.182 58.161 58.161 52.185-25.746c23.166-11.429 50.332-11.429 73.498 0l125.332 61.833c12.33 6.083 26.761-2.889 26.761-16.638v-427.394c0-14.972-12.137-27.109-27.109-27.109z" fill="url(#db3ed3b7-f1e5-4476-9b6f-64ac9a0dd09d)"></path><g><path d="m285.561 368.482 100.818 49.739c9.918 4.893 21.527-2.324 21.527-13.384v-383.03c0-12.044-9.763-21.807-21.807-21.807h-260.198c-12.044 0-21.807 9.763-21.807 21.807v383.03c0 11.059 11.609 18.277 21.527 13.384l100.818-49.739c18.635-9.194 40.487-9.194 59.122 0z" fill="url(#3b8ed191-333f-4188-99f0-ed155d601a8e)"></path><path d="m386.099 0h-130.099v361.586c10.122 0 20.244 2.299 29.561 6.895l100.818 49.739c9.918 4.893 21.527-2.324 21.527-13.384v-383.029c0-12.044-9.763-21.807-21.807-21.807z" fill="url(#60177253-e541-42bf-94f8-15486cce3c6a)"></path><path d="m407.904 198.576v206.258c0 11.061-11.608 18.276-21.526 13.385l-100.817-49.737c-9.315-4.601-19.442-6.894-29.562-6.894v-163.012z" fill="url(#0804c411-3617-4918-9e42-0d2c1cb4d976)"></path><path d="m104.094 198.576v206.258c0 11.061 11.608 18.276 21.526 13.385l100.817-49.737c9.315-4.601 19.442-6.894 29.562-6.894v-163.012z" fill="url(#3c8ffcc4-1932-4ae2-a8c6-28d37bf5058d)"></path></g><path d="m263.22 49.349 76.182 76.183h-72.125z" fill="url(#bf5bb1e6-c31f-4a48-888c-605a4620b38d)"></path><path d="m368.316 125.656-183.467 137.787 109.252 109.252 92.278 45.526c9.918 4.893 21.527-2.324 21.527-13.384v-239.591z" fill="url(#a18b15db-2955-4a71-a21e-fa0ab0e9aeb4)"></path><g><g><path d="m264.678 51.523 28.012 56.758c1.41 2.856 4.135 4.836 7.287 5.294l62.636 9.102c7.938 1.153 11.107 10.908 5.363 16.507l-45.324 44.18c-2.281 2.223-3.322 5.427-2.783 8.566l10.7 62.383c1.356 7.906-6.942 13.935-14.042 10.202l-56.024-29.453c-2.819-1.482-6.187-1.482-9.007 0l-56.024 29.453c-7.1 3.733-15.398-2.296-14.042-10.202l10.7-62.383c.538-3.139-.502-6.343-2.783-8.566l-45.324-44.18c-5.744-5.599-2.574-15.354 5.363-16.507l62.636-9.102c3.152-.458 5.877-2.438 7.287-5.294l28.012-56.758c3.551-7.193 13.807-7.193 17.357 0z" fill="url(#fcace964-435f-4e1d-bf64-1e7e072e288c)"></path><path d="m216.771 196.157c1.928-11.252-1.799-22.724-9.97-30.691l-10.801-10.528c-5.03-4.903-2.254-13.444 4.697-14.454l14.921-2.168c11.299-1.642 21.061-8.734 26.111-18.974l6.672-13.518c3.108-6.298 12.09-6.298 15.198 0l6.673 13.522c5.049 10.235 14.811 17.328 26.109 18.97l14.921 2.168c6.951 1.01 9.726 9.552 4.697 14.454l-10.797 10.524c-8.175 7.972-11.901 19.443-9.974 30.692l2.549 14.863c1.187 6.923-6.078 12.202-12.295 8.933l-13.346-7.016c-4.956-2.606-10.536-3.984-16.137-3.983-5.601-.001-11.181 1.377-16.138 3.983l-13.344 7.016c-6.217 3.268-13.483-2.011-12.295-8.933z" fill="url(#fae531ad-009c-4f3c-ac2c-6ed208a8d8ec)"></path><path d="m216.771 196.157c1.928-11.252-1.799-22.724-9.97-30.691l-10.801-10.528c-5.03-4.903-2.254-13.444 4.697-14.454l14.921-2.168c11.299-1.642 21.061-8.734 26.111-18.974l6.672-13.518c3.108-6.298 12.09-6.298 15.198 0l6.673 13.522c5.049 10.235 14.811 17.328 26.109 18.97l14.921 2.168c6.951 1.01 9.726 9.552 4.697 14.454l-10.797 10.524c-8.175 7.972-11.901 19.443-9.974 30.692l2.549 14.863c1.187 6.923-6.078 12.202-12.295 8.933l-13.346-7.016c-4.956-2.606-10.536-3.984-16.137-3.983-5.601-.001-11.181 1.377-16.138 3.983l-13.344 7.016c-6.217 3.268-13.483-2.011-12.295-8.933z" fill="url(#3d1a50cb-f7ef-4145-a1c8-721af8be80e2)"></path><path d="m216.771 196.157c1.928-11.252-1.799-22.724-9.97-30.691l-10.801-10.528c-5.03-4.903-2.254-13.444 4.697-14.454l14.921-2.168c11.299-1.642 21.061-8.734 26.111-18.974l6.672-13.518c3.108-6.298 12.09-6.298 15.198 0l6.673 13.522c5.049 10.235 14.811 17.328 26.109 18.97l14.921 2.168c6.951 1.01 9.726 9.552 4.697 14.454l-10.797 10.524c-8.175 7.972-11.901 19.443-9.974 30.692l2.549 14.863c1.187 6.923-6.078 12.202-12.295 8.933l-13.346-7.016c-4.956-2.606-10.536-3.984-16.137-3.983-5.601-.001-11.181 1.377-16.138 3.983l-13.344 7.016c-6.217 3.268-13.483-2.011-12.295-8.933z" fill="url(#76add579-f2e5-4a94-88d8-badf6810d10a)"></path></g><path d="m260.503 235.062 56.024 29.453c7.1 3.733 15.398-2.296 14.042-10.202l-10.699-62.383c-.539-3.139.502-6.343 2.783-8.566l45.324-44.18c5.744-5.599 2.574-15.354-5.363-16.507l-62.636-9.102c-3.152-.458-5.877-2.438-7.287-5.294l-28.012-56.758c-1.775-3.597-5.227-5.395-8.678-5.395v187.822c1.546.001 3.093.371 4.502 1.112z" fill="url(#e3c4db2c-11ad-4cf2-ada9-6e42dc075f39)"></path><path d="m367.977 139.184c.125-.122.223-.256.34-.382h-112.317v95.149c1.547 0 3.094.37 4.503 1.112l56.024 29.453c7.1 3.733 15.398-2.296 14.042-10.202l-10.699-62.383c-.539-3.139.502-6.343 2.783-8.566z" fill="url(#a64661f8-99d3-459d-b906-be61089ccb32)"></path><path d="m144.023 139.184c-.125-.122-.223-.256-.34-.382h112.317v95.149c-1.547 0-3.094.37-4.503 1.112l-56.024 29.453c-7.1 3.733-15.398-2.296-14.042-10.202l10.699-62.383c.539-3.139-.502-6.343-2.783-8.566z" fill="url(#2bf8f737-d7a6-4441-8f73-6b1d74309b32)"></path></g></g><g></g><g></g><g></g><g></g><g></g><g></g><g></g><g></g><g></g><g></g><g></g><g></g><g></g><g></g><g></g></svg>