<svg version="1.1" id="8de1cbb7-412f-45ac-b1c6-f9ecf172e7e4" xmlns="http://www.w3.org/2000/svg" xmlns:xlink="http://www.w3.org/1999/xlink" x="0px" y="0px" viewBox="0 0 512.002 512.002" style="enable-background:new 0 0 512.002 512.002;" xml:space="preserve" fill="currentColor" width="16px" height="16px"><linearGradient id="c3cad21b-3c0c-40a7-bbde-ce32545fedab" gradientUnits="userSpaceOnUse" x1="236.9382" y1="458.4284" x2="236.9382" y2="-71.1816" gradientTransform="matrix(1.0667 0 0 -1.0667 3.2666 557.5352)"><stop offset="0" style="stop-color:#FFCF95"></stop><stop offset="0.427" style="stop-color:#FFC954"></stop><stop offset="1" style="stop-color:#FFC200"></stop></linearGradient><path style="fill:url(#c3cad21b-3c0c-40a7-bbde-ce32545fedab);" d="M274.84,23.212l67.722,137.218l151.429,22.004c17.232,2.503,24.112,23.68,11.644,35.835	L396.058,325.077l25.867,150.817c2.944,17.162-15.07,30.25-30.482,22.147L256,426.835l-135.442,71.206	c-15.412,8.102-33.426-4.985-30.482-22.147l25.867-150.817L6.367,218.268c-12.469-12.155-5.588-33.33,11.644-35.835l151.429-22.004	l67.721-137.217C244.868,7.597,267.133,7.597,274.84,23.212z"></path><linearGradient id="913542da-32c1-428f-8b82-4f783ec39d44" gradientUnits="userSpaceOnUse" x1="361.338" y1="390.1314" x2="201.238" y2="390.1314" gradientTransform="matrix(1.0667 0 0 -1.0667 3.2666 557.5352)"><stop offset="0" style="stop-color:#FFC200;stop-opacity:0"></stop><stop offset="0.203" style="stop-color:#FFBB00;stop-opacity:0.203"></stop><stop offset="0.499" style="stop-color:#FFA700;stop-opacity:0.499"></stop><stop offset="0.852" style="stop-color:#FF8800;stop-opacity:0.852"></stop><stop offset="1" style="stop-color:#FF7800"></stop></linearGradient><path style="fill:url(#913542da-32c1-428f-8b82-4f783ec39d44);" d="M342.56,160.43L274.84,23.212c-3.853-7.807-11.346-11.711-18.839-11.711v259.789	L342.56,160.43z"></path><linearGradient id="8370e043-6b81-44b5-ae5a-ce6b31cc4b9a" gradientUnits="userSpaceOnUse" x1="388.6874" y1="144.8383" x2="346.2874" y2="353.6383" gradientTransform="matrix(1.0667 0 0 -1.0667 3.2666 557.5352)"><stop offset="0" style="stop-color:#FFC200;stop-opacity:0"></stop><stop offset="0.203" style="stop-color:#FFBB00;stop-opacity:0.203"></stop><stop offset="0.499" style="stop-color:#FFA700;stop-opacity:0.499"></stop><stop offset="0.852" style="stop-color:#FF8800;stop-opacity:0.852"></stop><stop offset="1" style="stop-color:#FF7800"></stop></linearGradient><path style="fill:url(#8370e043-6b81-44b5-ae5a-ce6b31cc4b9a);" d="M396.058,325.077l109.575-106.81c6.151-5.996,7.586-14.185,5.399-21.247L256,271.289	L396.058,325.077z"></path><linearGradient id="22e9a67a-c2f8-44d5-b2f6-9ff0935f6741" gradientUnits="userSpaceOnUse" x1="183.0977" y1="35.1087" x2="349.1577" y2="201.1687" gradientTransform="matrix(1.0667 0 0 -1.0667 3.2666 557.5352)"><stop offset="0" style="stop-color:#FFC200;stop-opacity:0"></stop><stop offset="0.203" style="stop-color:#FFBB00;stop-opacity:0.203"></stop><stop offset="0.499" style="stop-color:#FFA700;stop-opacity:0.499"></stop><stop offset="0.852" style="stop-color:#FF8800;stop-opacity:0.852"></stop><stop offset="1" style="stop-color:#FF7800"></stop></linearGradient><path style="fill:url(#22e9a67a-c2f8-44d5-b2f6-9ff0935f6741);" d="M413.63,496.393L256,271.289v155.546l135.442,71.206	C399.176,502.107,407.563,500.835,413.63,496.393z"></path><linearGradient id="427fc838-9750-4fe3-84d0-3471daed5acb" gradientUnits="userSpaceOnUse" x1="64.6777" y1="245.108" x2="187.0777" y2="142.708" gradientTransform="matrix(1.0667 0 0 -1.0667 3.2666 557.5352)"><stop offset="0" style="stop-color:#FFC200;stop-opacity:0"></stop><stop offset="0.203" style="stop-color:#FFBB00;stop-opacity:0.203"></stop><stop offset="0.499" style="stop-color:#FFA700;stop-opacity:0.499"></stop><stop offset="0.852" style="stop-color:#FF8800;stop-opacity:0.852"></stop><stop offset="1" style="stop-color:#FF7800"></stop></linearGradient><path style="fill:url(#427fc838-9750-4fe3-84d0-3471daed5acb);" d="M256,271.289l-140.058,53.788L90.076,475.894c-1.467,8.55,2.271,16.087,8.294,20.499	L256,271.289z"></path><linearGradient id="e81cfb0a-7e9e-4951-8c7f-ad1a9407b3f7" gradientUnits="userSpaceOnUse" x1="156.4334" y1="414.02" x2="106.8334" y2="273.22" gradientTransform="matrix(1.0667 0 0 -1.0667 3.2666 557.5352)"><stop offset="0" style="stop-color:#FFC200;stop-opacity:0"></stop><stop offset="0.203" style="stop-color:#FFBB00;stop-opacity:0.203"></stop><stop offset="0.499" style="stop-color:#FFA700;stop-opacity:0.499"></stop><stop offset="0.852" style="stop-color:#FF8800;stop-opacity:0.852"></stop><stop offset="1" style="stop-color:#FF7800"></stop></linearGradient><path style="fill:url(#e81cfb0a-7e9e-4951-8c7f-ad1a9407b3f7);" d="M0.968,197.021L256,271.289l-86.56-110.86L18.011,182.434	C9.28,183.702,3.214,189.767,0.968,197.021L0.968,197.021z"></path><linearGradient id="36a7de22-51b3-4543-a994-0722b0fef82b" gradientUnits="userSpaceOnUse" x1="343.1399" y1="399.3164" x2="-21.2601" y2="244.1164" gradientTransform="matrix(1.0667 0 0 -1.0667 3.2666 557.5352)"><stop offset="0" style="stop-color:#FFC200;stop-opacity:0"></stop><stop offset="0.203" style="stop-color:#FFBB00;stop-opacity:0.203"></stop><stop offset="0.499" style="stop-color:#FFA700;stop-opacity:0.499"></stop><stop offset="0.852" style="stop-color:#FF8800;stop-opacity:0.852"></stop><stop offset="1" style="stop-color:#FF7800"></stop></linearGradient><path style="fill:url(#36a7de22-51b3-4543-a994-0722b0fef82b);" d="M115.943,325.077L6.367,218.268c-6.151-5.996-7.586-14.185-5.399-21.247L256,271.289	L115.943,325.077z"></path><g></g><g></g><g></g><g></g><g></g><g></g><g></g><g></g><g></g><g></g><g></g><g></g><g></g><g></g><g></g></svg>