<svg id="0d2a0267-7d9b-44fc-8b8d-0c3cb3ffbaa5" enable-background="new 0 0 512 512" viewBox="0 0 512 512" xmlns="http://www.w3.org/2000/svg" xmlns:xlink="http://www.w3.org/1999/xlink" fill="currentColor" width="16px" height="16px"><linearGradient id="30898b8b-224c-4b8b-9e77-985cc43fdfc2"><stop offset="0" stop-color="#ffa1ae"></stop><stop offset="1" stop-color="#ff4565"></stop></linearGradient><linearGradient id="31fcdabc-c8a6-43a1-821b-6668d9af0cdc" gradientUnits="userSpaceOnUse" x1="144.136" x2="355.312" xlink:href="#30898b8b-224c-4b8b-9e77-985cc43fdfc2" y1="176.577" y2="387.753"></linearGradient><linearGradient id="03e3b969-a2c3-4da2-a0aa-52799754e042"><stop offset="0" stop-color="#fe0364" stop-opacity="0"></stop><stop offset=".2343" stop-color="#f90362" stop-opacity=".234"></stop><stop offset=".5173" stop-color="#ea035b" stop-opacity=".517"></stop><stop offset=".8243" stop-color="#d20250" stop-opacity=".824"></stop><stop offset="1" stop-color="#c00148"></stop></linearGradient><linearGradient id="c32924a7-9cd0-4178-b86c-b0bbe7fba4bf" gradientUnits="userSpaceOnUse" x1="304.107" x2="378.959" xlink:href="#03e3b969-a2c3-4da2-a0aa-52799754e042" y1="372.9" y2="463.435"></linearGradient><linearGradient id="62871ef2-3390-4207-804f-ff1979f6d77f" gradientUnits="userSpaceOnUse" x1="249.217" x2="235.673" xlink:href="#03e3b969-a2c3-4da2-a0aa-52799754e042" y1="369.262" y2="516.113"></linearGradient><linearGradient id="288c651d-dd01-4f06-bb02-0982a8ae4c2e" gradientUnits="userSpaceOnUse" x1="308.988" x2="443.008" xlink:href="#03e3b969-a2c3-4da2-a0aa-52799754e042" y1="231.39" y2="170.083"></linearGradient><linearGradient id="e8ad1e56-0930-4233-a7e9-7caa0754b38c" gradientUnits="userSpaceOnUse" x1="418.277" x2="254.317" xlink:href="#03e3b969-a2c3-4da2-a0aa-52799754e042" y1="479.425" y2="358.237"></linearGradient><linearGradient id="780f7af5-111d-4fcb-886d-820c81803961" gradientUnits="userSpaceOnUse" x1="206.504" x2="303.454" y1="298.818" y2="411.451"><stop offset="0" stop-color="#fef0ae"></stop><stop offset="1" stop-color="#fac600"></stop></linearGradient><linearGradient id="1a59c4d4-7d28-4e8f-9184-c8c7750c5210"><stop offset="0" stop-color="#fe9738" stop-opacity="0"></stop><stop offset="1" stop-color="#fe9738"></stop></linearGradient><linearGradient id="f7cfcac2-fbfe-44fd-9713-c48a1c708945" gradientUnits="userSpaceOnUse" x1="310.909" x2="343.701" xlink:href="#1a59c4d4-7d28-4e8f-9184-c8c7750c5210" y1="315.617" y2="304.211"></linearGradient><linearGradient id="4da95600-9a04-4186-a354-3772476da297" gradientUnits="userSpaceOnUse" x1="222.535" x2="198.298" xlink:href="#1a59c4d4-7d28-4e8f-9184-c8c7750c5210" y1="419.051" y2="458.497"></linearGradient><linearGradient id="fc5b5a2c-97af-420e-a3a0-8db0331de4e1" gradientUnits="userSpaceOnUse" x1="284.866" x2="303.876" xlink:href="#1a59c4d4-7d28-4e8f-9184-c8c7750c5210" y1="423.033" y2="463.429"></linearGradient><linearGradient id="33b9bb3e-280f-49bb-9d63-9f1d42926557" gradientUnits="userSpaceOnUse" x1="50.799" x2="94.997" xlink:href="#30898b8b-224c-4b8b-9e77-985cc43fdfc2" y1="125.663" y2="162.733"></linearGradient><linearGradient id="e66c7946-ac12-4f6d-bc22-addbccb2f461" gradientUnits="userSpaceOnUse" x1="62.573" x2="52.592" xlink:href="#03e3b969-a2c3-4da2-a0aa-52799754e042" y1="153.411" y2="179.431"></linearGradient><linearGradient id="53f27c10-8368-4ef1-a926-286aee4254ad" gradientUnits="userSpaceOnUse" x1="62.317" x2="94.752" xlink:href="#03e3b969-a2c3-4da2-a0aa-52799754e042" y1="140.719" y2="150.343"></linearGradient><g><g><path d="m451.949 250.75c-.144.311-.289.621-.435.931-5.698 12.125-23.926 7.311-22.803-6.039 2.052-24.399-.966-49.619-9.757-74.177-28.536-79.714-124.345-170.479-209.186-171.464-9.06-.105-14.262 10.267-8.915 17.581 7.129 9.75 12.918 20.741 17.017 32.797 13.454 39.575 5.172 81.709-18.518 113.013-9.876 13.05-30.846 6.605-31.191-9.757-.003-.118-.005-.237-.007-.356-.139-8.674 1.284-17.002 4.014-24.715 1.204-3.401-1.949-6.748-5.403-5.707-48.097 14.497-84.67 85.273-84.67 135.756 0 3.687.205 7.326.586 10.912.047 6.705 1.18 13.525 3.549 20.232.085.241.171.481.257.722.738 2.061 1.522 4.093 2.328 6.109-11.391-13.925-21.081-29.297-28.745-45.801-3.561-7.668-14.832-6.146-16.216 2.195-2.466 14.854-3.757 29.342-3.757 43.115 0 119.24 96.663 215.903 215.903 215.903s215.903-96.663 215.903-215.903c0-13.774-1.291-28.263-3.758-43.119-1.381-8.321-12.645-9.88-16.196-2.228z" fill="url(#31fcdabc-c8a6-43a1-821b-6668d9af0cdc)"></path><path d="m82.096 258.613c0 3.687.205 7.326.586 10.912.047 6.705 1.18 13.524 3.549 20.232.085.241.171.481.257.721.738 2.061 1.522 4.093 2.328 6.109-11.391-13.925-21.081-29.297-28.745-45.801-3.561-7.668-14.832-6.146-16.216 2.195-2.466 14.854-3.757 29.342-3.757 43.115-.001 119.241 96.662 215.904 215.902 215.904s215.903-96.663 215.903-215.903c0-13.774-1.291-28.263-3.758-43.119-1.382-8.321-12.646-9.88-16.197-2.228-.144.311-.289.621-.435.931-5.698 12.125-23.926 7.311-22.803-6.039.475-5.648.665-11.341.588-17.058h-343.511c-2.406 10.387-3.691 20.564-3.691 30.029z" fill="url(#c32924a7-9cd0-4178-b86c-b0bbe7fba4bf)"></path><path d="m82.096 258.613c0 3.687.205 7.326.586 10.912.047 6.705 1.18 13.524 3.549 20.232.085.241.171.481.257.721.738 2.061 1.522 4.093 2.328 6.109-11.391-13.925-21.081-29.297-28.745-45.801-3.561-7.668-14.832-6.146-16.216 2.195-2.466 14.854-3.757 29.342-3.757 43.115-.001 119.241 96.662 215.904 215.902 215.904s215.903-96.663 215.903-215.903c0-13.774-1.291-28.263-3.758-43.119-1.382-8.321-12.646-9.88-16.197-2.228-.144.311-.289.621-.435.931-5.698 12.125-23.926 7.311-22.803-6.039.475-5.648.665-11.341.588-17.058h-343.511c-2.406 10.387-3.691 20.564-3.691 30.029z" fill="url(#62871ef2-3390-4207-804f-ff1979f6d77f)"></path><path d="m471.903 296.097c0-13.774-1.291-28.263-3.758-43.119-1.382-8.321-12.646-9.88-16.197-2.228-.144.311-.289.621-.435.931-5.698 12.125-23.926 7.311-22.803-6.039 2.052-24.399-.966-49.619-9.757-74.177-28.535-79.714-124.344-170.479-209.185-171.464-9.06-.105-14.262 10.267-8.915 17.582 7.129 9.75 12.918 20.741 17.017 32.797 13.454 39.575 5.172 81.709-18.518 113.013-4.918 6.498-12.586 8.16-19.089 6.173v328.762c23.568 8.831 49.086 13.672 75.737 13.672 119.24 0 215.903-96.663 215.903-215.903z" fill="url(#288c651d-dd01-4f06-bb02-0982a8ae4c2e)"></path></g><path d="m455.45 378.879-140.354-140.354-143.255 205.954 66.828 66.828c5.718.454 11.496.693 17.331.693 89.911 0 166.974-54.965 199.45-133.121z" fill="url(#e8ad1e56-0930-4233-a7e9-7caa0754b38c)"></path><g><path d="m365.38 332.911c-.081.174-.161.347-.243.52-3.18 6.768-13.355 4.081-12.729-3.371 1.145-13.62-.539-27.697-5.447-41.406-15.929-44.497-69.41-95.163-116.769-95.713-5.058-.059-7.961 5.731-4.976 9.814 3.979 5.443 7.211 11.578 9.499 18.308 7.51 22.091 2.887 45.611-10.337 63.085-5.513 7.285-17.218 3.687-17.411-5.447-.001-.066-.003-.132-.004-.199-.078-4.842.717-9.491 2.241-13.796.672-1.898-1.088-3.767-3.016-3.186-26.848 8.093-47.263 47.6-47.263 75.78 0 2.058.115 4.089.327 6.091.026 3.743.659 7.549 1.981 11.293.048.134.095.269.143.403.412 1.151.85 2.284 1.299 3.41-6.359-7.773-11.767-16.354-16.046-25.566-1.988-4.281-8.279-3.43-9.052 1.225-1.377 8.292-2.097 16.379-2.097 24.067 0 66.561 53.958 120.519 120.519 120.519s120.519-53.958 120.519-120.519c0-7.689-.721-15.777-2.098-24.069-.77-4.644-7.058-5.514-9.04-1.243z" fill="url(#780f7af5-111d-4fcb-886d-820c81803961)"></path><path d="m376.519 358.224c0-7.689-.721-15.777-2.098-24.069-.771-4.645-7.059-5.515-9.041-1.244-.081.174-.161.347-.243.52-3.18 6.768-13.355 4.081-12.729-3.371 1.145-13.62-.539-27.697-5.447-41.406-15.929-44.497-69.41-95.163-116.769-95.713-5.058-.059-7.961 5.731-4.976 9.814 3.979 5.443 7.211 11.578 9.499 18.308 7.51 22.091 2.887 45.611-10.337 63.085-2.745 3.627-7.025 4.555-10.655 3.446v183.517c13.156 4.929 27.4 7.632 42.277 7.632 66.561 0 120.519-53.959 120.519-120.519z" fill="url(#f7cfcac2-fbfe-44fd-9713-c48a1c708945)"></path><path d="m158.925 337.3c0 2.058.115 4.089.327 6.091.026 3.743.659 7.549 1.981 11.293.048.134.095.269.143.403.412 1.151.85 2.284 1.299 3.41-6.359-7.773-11.767-16.354-16.046-25.566-1.988-4.281-8.279-3.43-9.052 1.225-1.377 8.292-2.097 16.379-2.097 24.067 0 66.561 53.958 120.519 120.519 120.519s120.519-53.958 120.519-120.519c0-7.689-.721-15.777-2.098-24.069-.771-4.645-7.059-5.515-9.041-1.244-.081.174-.161.347-.243.52-3.18 6.768-13.355 4.081-12.729-3.371.265-3.153.371-6.33.328-9.522h-191.749c-1.343 5.799-2.061 11.48-2.061 16.763z" fill="url(#4da95600-9a04-4186-a354-3772476da297)"></path><path d="m158.925 337.3c0 2.058.115 4.089.327 6.091.026 3.743.659 7.549 1.981 11.293.048.134.095.269.143.403.412 1.151.85 2.284 1.299 3.41-6.359-7.773-11.767-16.354-16.046-25.566-1.988-4.281-8.279-3.43-9.052 1.225-1.377 8.292-2.097 16.379-2.097 24.067 0 66.561 53.958 120.519 120.519 120.519s120.519-53.958 120.519-120.519c0-7.689-.721-15.777-2.098-24.069-.771-4.645-7.059-5.515-9.041-1.244-.081.174-.161.347-.243.52-3.18 6.768-13.355 4.081-12.729-3.371.265-3.153.371-6.33.328-9.522h-191.749c-1.343 5.799-2.061 11.48-2.061 16.763z" fill="url(#fc5b5a2c-97af-420e-a3a0-8db0331de4e1)"></path></g><g><path d="m63.178 179.324c15.797 3.24 28.385-13.006 22.079-27.848-4.713-11.092-3.973-24.258 3.136-35.09.012-.018.024-.036.035-.054 1.797-2.728.362-6.4-2.825-7.118-14.726-3.317-30.614 2.559-39.386 15.924-11.304 17.224-6.505 40.351 10.719 51.656 1.929 1.264 4.034 2.077 6.242 2.53z" fill="url(#33b9bb3e-280f-49bb-9d63-9f1d42926557)"></path><path d="m63.178 179.324c15.797 3.24 28.385-13.006 22.079-27.848-4.713-11.092-3.973-24.258 3.136-35.09.012-.018.024-.036.035-.054 1.797-2.728.362-6.4-2.825-7.118-14.726-3.317-30.614 2.559-39.386 15.924-11.304 17.224-6.505 40.351 10.719 51.656 1.929 1.264 4.034 2.077 6.242 2.53z" fill="url(#e66c7946-ac12-4f6d-bc22-addbccb2f461)"></path><path d="m63.178 179.324c15.797 3.24 28.385-13.006 22.079-27.848-4.713-11.092-3.973-24.258 3.136-35.09.012-.018.024-.036.035-.054 1.797-2.728.362-6.4-2.825-7.118-14.726-3.317-30.614 2.559-39.386 15.924-11.304 17.224-6.505 40.351 10.719 51.656 1.929 1.264 4.034 2.077 6.242 2.53z" fill="url(#53f27c10-8368-4ef1-a926-286aee4254ad)"></path></g></g><g></g><g></g><g></g><g></g><g></g><g></g><g></g><g></g><g></g><g></g><g></g><g></g><g></g><g></g><g></g></svg>