<svg id="fbd9d000-be85-48bc-8ae3-a9a3070133dd" enable-background="new 0 0 512 512" viewBox="0 0 512 512" xmlns="http://www.w3.org/2000/svg" xmlns:xlink="http://www.w3.org/1999/xlink" fill="currentColor" width="16px" height="16px"><linearGradient id="6af3e007-231a-4a98-9e5c-4a22084412e0" gradientTransform="matrix(1 0 0 -1 0 514)" gradientUnits="userSpaceOnUse" x1="29.224" x2="423.458" y1="484.776" y2="90.542"><stop offset="0" stop-color="#ff4565"></stop><stop offset=".2702" stop-color="#fa4362"></stop><stop offset=".5502" stop-color="#ee3d5a"></stop><stop offset=".8337" stop-color="#d9344d"></stop><stop offset="1" stop-color="#ca2e43"></stop></linearGradient><linearGradient id="6f889e3a-adaa-4505-b01e-c6d74aa50d16"><stop offset="0" stop-color="#6d3326" stop-opacity="0"></stop><stop offset=".2414" stop-color="#6a3124" stop-opacity=".063"></stop><stop offset=".4916" stop-color="#622e1f" stop-opacity=".252"></stop><stop offset=".7457" stop-color="#542816" stop-opacity=".565"></stop><stop offset="1" stop-color="#42210b"></stop></linearGradient><linearGradient id="c3202ad9-eaad-4881-87ac-1d7c018fddc9" gradientTransform="matrix(1 0 0 -1 0 514)" gradientUnits="userSpaceOnUse" x1="197.39" x2="197.39" xlink:href="#6f889e3a-adaa-4505-b01e-c6d74aa50d16" y1="359.412" y2="297.38"></linearGradient><linearGradient id="e8b5c5ab-436c-43bc-84e0-f0b4f4b6d6b4" gradientTransform="matrix(1 0 0 -1 0 514)" gradientUnits="userSpaceOnUse" x1="134.179" x2="191.391" xlink:href="#6f889e3a-adaa-4505-b01e-c6d74aa50d16" y1="176.669" y2="164.873"></linearGradient><linearGradient id="89fc1c1d-aedd-4613-a538-d262d42fa566" gradientTransform="matrix(1 0 0 -1 0 514)" gradientUnits="userSpaceOnUse" x1="148.87" x2="148.87" xlink:href="#6f889e3a-adaa-4505-b01e-c6d74aa50d16" y1="273.298" y2="319.44"></linearGradient><linearGradient id="a9cf40bd-ce99-466f-a840-b86caafee197" gradientTransform="matrix(1 0 0 -1 0 514)" gradientUnits="userSpaceOnUse" x1="191.857" x2="254.377" xlink:href="#6f889e3a-adaa-4505-b01e-c6d74aa50d16" y1="442.718" y2="429.152"></linearGradient><linearGradient id="6e67e750-2e60-40b7-92b5-2b6f811d5360" gradientTransform="matrix(1 0 0 -1 0 514)" gradientUnits="userSpaceOnUse" x1="189.511" x2="189.511" xlink:href="#6f889e3a-adaa-4505-b01e-c6d74aa50d16" y1="435.498" y2="397.732"></linearGradient><linearGradient id="b46296b9-73dd-4c33-beb8-619418bf5024" gradientTransform="matrix(1 0 0 -1 0 514)" gradientUnits="userSpaceOnUse" x1="314.61" x2="314.61" xlink:href="#6f889e3a-adaa-4505-b01e-c6d74aa50d16" y1="142.949" y2="91.015"></linearGradient><linearGradient id="3d615cfd-d8c7-4bd6-bd4d-b3e79355a4b5" gradientTransform="matrix(1 0 0 -1 0 514)" gradientUnits="userSpaceOnUse" x1="224.272" x2="161.162" xlink:href="#6f889e3a-adaa-4505-b01e-c6d74aa50d16" y1="155.178" y2="168.154"></linearGradient><linearGradient id="3884f289-86ee-4ab0-aa50-9284e16b50ae" gradientTransform="matrix(1 0 0 -1 0 514)" gradientUnits="userSpaceOnUse" x1="33.774" x2="80.37" xlink:href="#6f889e3a-adaa-4505-b01e-c6d74aa50d16" y1="157.498" y2="145.702"></linearGradient><linearGradient id="811347eb-32e5-4674-a19c-5578a8fad226" gradientTransform="matrix(1 0 0 -1 0 514)" gradientUnits="userSpaceOnUse" x1="108.239" x2="108.239" xlink:href="#6f889e3a-adaa-4505-b01e-c6d74aa50d16" y1="62.144" y2="30.684"></linearGradient><linearGradient id="875a52a7-4945-4315-80ef-8ec7925ddd07" gradientTransform="matrix(1 0 0 -1 0 514)" gradientUnits="userSpaceOnUse" x1="429.213" x2="462.243" xlink:href="#6f889e3a-adaa-4505-b01e-c6d74aa50d16" y1="149.992" y2="141.734"></linearGradient><linearGradient id="4140b1eb-d599-42ca-8af5-538b18697ee4" gradientTransform="matrix(1 0 0 -1 0 514)" gradientUnits="userSpaceOnUse" x1="322.317" x2="322.317" xlink:href="#6f889e3a-adaa-4505-b01e-c6d74aa50d16" y1="62.733" y2="32.04"></linearGradient><linearGradient id="7c579827-f43a-4644-a0a5-5df9a9a9b075" gradientTransform="matrix(1 0 0 -1 0 514)" gradientUnits="userSpaceOnUse" x1="322.426" x2="378.459" xlink:href="#6f889e3a-adaa-4505-b01e-c6d74aa50d16" y1="73.201" y2="57.276"></linearGradient><linearGradient id="923c65ce-da8f-41d5-a377-4e24cc57e76d" gradientTransform="matrix(1 0 0 -1 0 514)" gradientUnits="userSpaceOnUse" x1="322.317" x2="322.317" xlink:href="#6f889e3a-adaa-4505-b01e-c6d74aa50d16" y1="66.862" y2="106.398"></linearGradient><linearGradient id="f1ef7341-7caf-4338-8aee-4b1828c7fd8b" gradientTransform="matrix(1 0 0 -1 0 514)" gradientUnits="userSpaceOnUse" x1="391.557" x2="442.871" xlink:href="#6f889e3a-adaa-4505-b01e-c6d74aa50d16" y1="335.867" y2="323.481"></linearGradient><linearGradient id="4bf2acb9-56ca-4414-aae9-d66d082b6340" gradientTransform="matrix(1 0 0 -1 0 514)" gradientUnits="userSpaceOnUse" x1="363.13" x2="363.13" xlink:href="#6f889e3a-adaa-4505-b01e-c6d74aa50d16" y1="237.909" y2="182.438"></linearGradient><linearGradient id="92d05d56-c3c9-45c6-90ab-4eca33e39f50" gradientTransform="matrix(1 0 0 -1 0 514)" gradientUnits="userSpaceOnUse" x1="469.419" x2="469.419" xlink:href="#6f889e3a-adaa-4505-b01e-c6d74aa50d16" y1="345.846" y2="306.218"></linearGradient><linearGradient id="a5ee1333-5b4b-407c-92e0-dc670fbcfd38" gradientTransform="matrix(1 0 0 -1 0 514)" gradientUnits="userSpaceOnUse" x1="469.282" x2="508.8" xlink:href="#6f889e3a-adaa-4505-b01e-c6d74aa50d16" y1="360.504" y2="348.708"></linearGradient><linearGradient id="b16b6aed-dc59-44b7-88ef-19e6410fd2e9" gradientTransform="matrix(1 0 0 -1 0 514)" gradientUnits="userSpaceOnUse" x1="484.951" x2="432.458" xlink:href="#6f889e3a-adaa-4505-b01e-c6d74aa50d16" y1="358.405" y2="367.842"></linearGradient><linearGradient id="7374da0a-32a7-4a7d-8314-acd8c3f1103e" gradientTransform="matrix(1 0 0 -1 0 514)" gradientUnits="userSpaceOnUse" x1="291.904" x2="346.758" xlink:href="#6f889e3a-adaa-4505-b01e-c6d74aa50d16" y1="360.626" y2="352.369"></linearGradient><g><path d="m495.9 101.5h-46.2l10.3-45c2.3-10.1-5.4-19.7-15.7-19.7h-69.4c-7.5 0-14.1 5.2-15.7 12.5l-11.9 52.2h-111.7l10.3-45.1c2.3-10.1-5.4-19.7-15.7-19.7h-69.4c-7.5 0-14.1 5.2-15.7 12.5l-12 52.3h-53.7c-7.5 0-14.1 5.2-15.7 12.5l-15.7 67.9c-2.3 10.1 5.4 19.7 15.7 19.7h46.3l-24.8 108.9h-53.6c-7.5 0-14.1 5.2-15.7 12.5l-15.5 67.8c-2.3 10.1 5.4 19.7 15.7 19.7h46.2l-10.3 45c-2.3 10.1 5.4 19.7 15.7 19.7h69.4c7.5 0 14.1-5.2 15.7-12.5l11.9-52.2h111.7l-10.3 45.1c-2.3 10.1 5.4 19.7 15.7 19.7h69.4c7.5 0 14.1-5.2 15.7-12.5l12-52.3h53.7c7.5 0 14.1-5.2 15.7-12.5l15.4-67.7c2.3-10.1-5.4-19.7-15.7-19.7h-46.3l24.9-108.9h53.6c7.5 0 14.1-5.2 15.7-12.5l15.4-67.7c2.6-10.4-5.1-20-15.4-20zm-196.5 208.9h-111.7l24.9-108.9h111.7z" fill="url(#6af3e007-231a-4a98-9e5c-4a22084412e0)"></path><path d="m235.4 101.6h-102.5v.1h-53.7c-7.5 0-14.1 5.2-15.7 12.5l-15.5 67.7c-2.3 10.1 5.4 19.7 15.7 19.7h46.3 102.5 111.7l22.8-100z" fill="url(#c3202ad9-eaad-4881-87ac-1d7c018fddc9)"></path><path d="m110 201.6-24.8 108.9-22.8 100-10.3 45c-2.3 10.1 5.4 19.7 15.7 19.7h69.4c7.5 0 14.1-5.2 15.7-12.5l11.9-52.2 22.8-100 24.9-108.9z" fill="url(#e8b5c5ab-436c-43bc-84e0-f0b4f4b6d6b4)"></path><path d="m212.6 201.6h-102.6l-24.8 108.9h102.5z" fill="url(#89fc1c1d-aedd-4613-a538-d262d42fa566)"></path><path d="m245.7 56.5c2.3-10.1-5.4-19.7-15.7-19.7h-69.4c-7.5 0-14.1 5.2-15.7 12.5l-12 52.3h102.5z" fill="url(#a9cf40bd-ce99-466f-a840-b86caafee197)"></path><path d="m245.7 56.5c2.3-10.1-5.4-19.7-15.7-19.7h-69.4c-7.5 0-14.1 5.2-15.7 12.5l-12 52.3h102.5z" fill="url(#6e67e750-2e60-40b7-92b5-2b6f811d5360)"></path><path d="m276.6 410.4h102.5v-.1h53.7c7.5 0 14.1-5.2 15.7-12.5l15.4-67.7c2.2-9.7-4.8-18.9-14.5-19.7h-261.8l-22.8 100z" fill="url(#b46296b9-73dd-4c33-beb8-619418bf5024)"></path><path d="m187.7 310.5-22.8 99.9h111.7l22.8-100z" fill="url(#3d615cfd-d8c7-4bd6-bd4d-b3e79355a4b5)"></path><path d="m31.6 310.6c-7.5 0-14.1 5.2-15.7 12.5l-15.5 67.7c-2.3 10.1 5.4 19.7 15.7 19.7h46.2l22.8-100z" fill="url(#3884f289-86ee-4ab0-aa50-9284e16b50ae)"></path><path d="m62.3 410.4-10.3 45.1c-2.3 10.1 5.4 19.7 15.7 19.7h69.4c7.5 0 14.1-5.2 15.7-12.5l11.9-52.2z" fill="url(#811347eb-32e5-4674-a19c-5578a8fad226)"></path><path d="m448.5 397.8 15.4-67.7c2.2-9.7-4.8-18.9-14.5-19.7h-47.5l-22.8 99.9h53.7c7.5 0 14-5.2 15.7-12.5z" fill="url(#875a52a7-4945-4315-80ef-8ec7925ddd07)"></path><path d="m265.5 410.4h11.1l-10.3 45.1c-2.3 10.1 5.4 19.7 15.7 19.7h69.4c7.5 0 14.1-5.2 15.7-12.5l12-52.3z" fill="url(#4140b1eb-d599-42ca-8af5-538b18697ee4)"></path><path d="m265.5 410.4h11.1l-10.3 45.1c-2.3 10.1 5.4 19.7 15.7 19.7h69.4c7.5 0 14.1-5.2 15.7-12.5l12-52.3z" fill="url(#7c579827-f43a-4644-a0a5-5df9a9a9b075)"></path><path d="m265.5 410.4h11.1l-10.3 45.1c-2.3 10.1 5.4 19.7 15.7 19.7h69.4c7.5 0 14.1-5.2 15.7-12.5l12-52.3z" fill="url(#923c65ce-da8f-41d5-a377-4e24cc57e76d)"></path><path d="m449.7 101.5 10.3-45c2.3-10.1-5.4-19.7-15.7-19.7h-69.4c-7.5 0-14.1 5.2-15.7 12.5l-11.9 52.2-22.8 100-24.9 108.9h102.5l.1-.1h-.2l24.9-108.9z" fill="url(#f1ef7341-7caf-4338-8aee-4b1828c7fd8b)"></path><path d="m299.4 310.4 102.5.1 24.9-109h-102.5z" fill="url(#4bf2acb9-56ca-4414-aae9-d66d082b6340)"></path><path d="m495.9 101.5h-46.2l-22.8 100h53.6c7.5 0 14.1-5.2 15.7-12.5l15.4-67.7c2.3-10.2-5.4-19.8-15.7-19.8z" fill="url(#92d05d56-c3c9-45c6-90ab-4eca33e39f50)"></path><path d="m495.9 101.5h-46.2l-22.8 100h53.6c7.5 0 14.1-5.2 15.7-12.5l15.4-67.7c2.3-10.2-5.4-19.8-15.7-19.8z" fill="url(#a5ee1333-5b4b-407c-92e0-dc670fbcfd38)"></path><path d="m495.9 101.5h-46.2l-22.8 100h53.6c7.5 0 14.1-5.2 15.7-12.5l15.4-67.7c2.3-10.2-5.4-19.8-15.7-19.8z" fill="url(#b16b6aed-dc59-44b7-88ef-19e6410fd2e9)"></path><path d="m324.3 201.5 22.8-99.9h-111.7l-22.8 100z" fill="url(#7374da0a-32a7-4a7d-8314-acd8c3f1103e)"></path></g></svg>