<svg id="604feea4-fa13-40cd-aa18-de8bf012b5ad" enable-background="new 0 0 510 510" height="16px" viewBox="0 0 510 510" width="16px" xmlns="http://www.w3.org/2000/svg" xmlns:xlink="http://www.w3.org/1999/xlink" fill="currentColor"><linearGradient id="4a868b06-1da4-49a4-a373-8f2fabe76f23"><stop offset="0" stop-color="#6e61b6"></stop><stop offset="1" stop-color="#433f43"></stop></linearGradient><linearGradient id="7b7df6ac-e77e-40ee-98de-a6f6222eed32" gradientTransform="matrix(.707 .707 -.707 .707 196.967 -129.662)" gradientUnits="userSpaceOnUse" x1="180.258" x2="445.808" xlink:href="#4a868b06-1da4-49a4-a373-8f2fabe76f23" y1="111.111" y2="111.111"></linearGradient><linearGradient id="11f76c2b-ccec-4487-ad4b-9107f7c2aa7f" gradientTransform="matrix(.707 .707 -.707 .707 196.967 -129.662)" gradientUnits="userSpaceOnUse" x1="422.336" x2="120.932" xlink:href="#4a868b06-1da4-49a4-a373-8f2fabe76f23" y1="111.111" y2="111.111"></linearGradient><linearGradient id="8bd59646-9455-4a77-a331-78ba2ef33e3d"><stop offset="0" stop-color="#433f43" stop-opacity="0"></stop><stop offset="1" stop-color="#1a1a1a"></stop></linearGradient><linearGradient id="f9e4efff-d83b-450a-96c2-5f21ca73b2f0" gradientTransform="matrix(.707 .707 -.707 .707 196.967 -129.662)" gradientUnits="userSpaceOnUse" x1="313.033" x2="313.033" xlink:href="#8bd59646-9455-4a77-a331-78ba2ef33e3d" y1="235.397" y2="300.393"></linearGradient><linearGradient id="7009300d-4156-492e-b814-ab3b8c2301cd" gradientTransform="matrix(.707 .707 -.707 .707 196.967 -129.662)" gradientUnits="userSpaceOnUse" x1="405.722" x2="446.03" xlink:href="#8bd59646-9455-4a77-a331-78ba2ef33e3d" y1="111.111" y2="111.111"></linearGradient><linearGradient id="92a883ce-5659-4e51-a8ae-faf312736bd3" gradientTransform="matrix(.707 .707 -.707 .707 196.967 -129.662)" gradientUnits="userSpaceOnUse" x1="315.532" x2="352.695" xlink:href="#8bd59646-9455-4a77-a331-78ba2ef33e3d" y1="247.19" y2="230.576"></linearGradient><linearGradient id="bec8ba4a-5cec-4ab2-bc37-be56d8314148"><stop offset="0" stop-color="#f9f7f8"></stop><stop offset="1" stop-color="#e5e1e5"></stop></linearGradient><linearGradient id="c4c7ee41-2306-4030-9be1-24fa37fc6faf" gradientTransform="matrix(.707 .707 -.707 .707 196.967 -129.662)" gradientUnits="userSpaceOnUse" x1="180.26" x2="445.805" xlink:href="#bec8ba4a-5cec-4ab2-bc37-be56d8314148" y1="350.812" y2="350.812"></linearGradient><linearGradient id="0c36b9a2-6c57-4163-a7dc-e11d8631dba3" gradientTransform="matrix(.707 .707 -.707 .707 196.967 -129.662)" gradientUnits="userSpaceOnUse" x1="422.333" x2="120.937" xlink:href="#bec8ba4a-5cec-4ab2-bc37-be56d8314148" y1="350.812" y2="350.812"></linearGradient><linearGradient id="2ffb63b6-c8c9-4628-9445-cfa24db6e595"><stop offset="0" stop-color="#9b8e99" stop-opacity="0"></stop><stop offset=".3465" stop-color="#978a95" stop-opacity=".347"></stop><stop offset=".7135" stop-color="#8a7f88" stop-opacity=".714"></stop><stop offset="1" stop-color="#7b7179"></stop></linearGradient><linearGradient id="435523cb-ae50-414d-b81e-dd0609f36826" gradientTransform="matrix(.707 .707 -.707 .707 196.967 -129.662)" gradientUnits="userSpaceOnUse" x1="215.649" x2="244.797" xlink:href="#2ffb63b6-c8c9-4628-9445-cfa24db6e595" y1="309.466" y2="286.148"></linearGradient><linearGradient id="e8d6bfaa-baea-4206-9361-ff97ad827efc" gradientTransform="matrix(.707 .707 -.707 .707 196.967 -129.662)" gradientUnits="userSpaceOnUse" x1="401.349" x2="455.908" xlink:href="#2ffb63b6-c8c9-4628-9445-cfa24db6e595" y1="350.812" y2="350.812"></linearGradient><linearGradient id="4960fa8a-39fa-410b-8a81-57210d37b2ba" gradientTransform="matrix(.707 .707 -.707 .707 196.967 -129.662)" gradientUnits="userSpaceOnUse" x1="313.033" x2="313.033" xlink:href="#2ffb63b6-c8c9-4628-9445-cfa24db6e595" y1="468.576" y2="533.294"></linearGradient><linearGradient id="004e6c5e-5346-46cd-85c3-6e8664afa730" gradientTransform="matrix(.707 .707 -.707 .707 196.967 -129.662)" gradientUnits="userSpaceOnUse" x1="317.447" x2="255.071" xlink:href="#2ffb63b6-c8c9-4628-9445-cfa24db6e595" y1="215.165" y2="224.492"></linearGradient><linearGradient id="5d909b64-cb81-4ec6-b19d-e84c5804189a"><stop offset="0" stop-color="#d5daf3"></stop><stop offset="1" stop-color="#60b7ff"></stop></linearGradient><linearGradient id="20662762-ce27-4ec1-8898-2ee64461c696" gradientUnits="userSpaceOnUse" x1="81.099" x2="149.983" xlink:href="#5d909b64-cb81-4ec6-b19d-e84c5804189a" y1="104.014" y2="117.046"></linearGradient><linearGradient id="758d8890-1958-4d9a-8b66-a37ecea0d183" gradientUnits="userSpaceOnUse" x1="26.006" x2="99.616" xlink:href="#5d909b64-cb81-4ec6-b19d-e84c5804189a" y1="183.55" y2="197.476"></linearGradient><linearGradient id="1aa7f772-523b-4eec-8d81-d3b08cd4cc06" gradientUnits="userSpaceOnUse" x1="161.968" x2="222.46" xlink:href="#5d909b64-cb81-4ec6-b19d-e84c5804189a" y1="52.743" y2="64.187"></linearGradient><g><g><g><path d="m208.322 301.678c-51.769-51.769-51.769-136.003 0-187.772l75.08-75.08c51.769-51.769 136.003-51.769 187.772 0s51.769 136.003 0 187.772l-75.08 75.08c-51.769 51.769-136.003 51.769-187.772 0zm216.478-216.478c-26.198-26.198-68.827-26.198-95.025 0l-75.08 75.08c-26.198 26.198-26.198 68.827 0 95.025s68.827 26.198 95.025 0l75.08-75.08c26.198-26.198 26.198-68.827 0-95.025z" fill="url(#7b7df6ac-e77e-40ee-98de-a6f6222eed32)"></path><path d="m447.987 62.013c-39.046-39.046-102.352-39.046-141.399 0l-75.08 75.08c-39.046 39.046-39.046 102.352 0 141.398 39.046 39.046 102.352 39.046 141.398 0l75.08-75.08c39.047-39.045 39.047-102.351.001-141.398zm-98.267 193.292c-26.198 26.198-68.827 26.198-95.025 0s-26.198-68.827 0-95.025l75.08-75.08c26.198-26.198 68.827-26.198 95.025 0s26.198 68.827 0 95.025z" fill="url(#11f76c2b-ccec-4487-ad4b-9107f7c2aa7f)"></path><path d="m392.123 212.902-42.403 42.403c-26.198 26.198-68.827 26.198-95.025 0s-26.198-68.827 0-95.025l42.403-42.403-46.373-46.373-42.403 42.403c-51.769 51.769-51.769 136.003 0 187.772s136.003 51.769 187.772 0l42.403-42.403z" fill="url(#f9e4efff-d83b-450a-96c2-5f21ca73b2f0)"></path><path d="m424.8 180.225-75.08 75.08c-26.198 26.198-68.827 26.198-95.025 0l-46.373 46.373c51.769 51.769 136.003 51.769 187.772 0l75.08-75.08c51.769-51.769 51.769-136.003 0-187.772l-46.374 46.374c26.198 26.198 26.198 68.827 0 95.025z" fill="url(#7009300d-4156-492e-b814-ab3b8c2301cd)"></path><path d="m290.587 339.991c11.203-19.979 14.498-43.193 9.893-65.079-16.626-.424-33.124-6.947-45.785-19.608-13.953-13.953-20.472-32.566-19.562-50.875-21.587-6.274-44.988-4.626-65.619 4.953.397 33.469 13.327 66.815 38.808 92.295 22.932 22.934 52.236 35.699 82.265 38.314z" fill="url(#92a883ce-5659-4e51-a8ae-faf312736bd3)"></path></g><g><path d="m336.127 336.13c6.029-22.921 5.837-47.152-.575-69.999-5.948-21.183-17.232-41.173-33.871-57.812s-36.629-27.923-57.812-33.871c-13.442 23.533-11.525 53.509 5.769 75.193 1.96 1.552 3.858 3.24 5.67 5.052s3.5 3.71 5.052 5.67c17.294 21.672 19.211 51.66 5.775 75.187-2.894 5.07-6.511 9.85-10.833 14.172l-75.075 75.075c-26.204 26.204-68.83 26.204-95.028.006s-26.198-68.824.006-95.028l75.075-75.075c4.322-4.322 9.102-7.939 14.172-10.833-6.406-22.84-6.604-47.066-.581-69.993-21.981 5.769-42.769 17.257-59.964 34.452l-75.076 75.074c-51.771 51.771-51.777 136.004-.006 187.775s136.004 51.765 187.775-.006l75.075-75.075c17.195-17.196 28.683-37.983 34.452-59.964z" fill="url(#c4c7ee41-2306-4030-9be1-24fa37fc6faf)"></path><path d="m300.172 340.489c8.638-20.843 9.918-44.024 3.827-65.559-4.489-15.903-12.991-30.909-25.505-43.424-12.515-12.515-27.521-21.016-43.424-25.505-.408 15.421 4.446 30.946 14.567 43.64 1.96 1.552 3.858 3.24 5.67 5.052s3.5 3.71 5.052 5.67c17.294 21.672 19.211 51.66 5.775 75.187-2.894 5.07-6.511 9.85-10.833 14.172l-75.075 75.075c-26.204 26.204-68.83 26.204-95.028.006s-26.198-68.824.006-95.028l75.075-75.075c4.322-4.322 9.102-7.939 14.172-10.833-3.122-11.123-4.767-22.575-4.94-34.038-11.791 4.866-22.834 12.1-32.418 21.684l-75.075 75.075c-39.046 39.046-39.052 102.355-.006 141.401 19.526 19.526 45.112 29.283 70.698 29.283 25.592-.006 51.178-9.763 70.704-29.289l75.075-75.075c9.583-9.585 16.817-20.628 21.683-32.419z" fill="url(#0c36b9a2-6c57-4163-a7dc-e11d8631dba3)"></path><path d="m65.279 288.495c11.097 11.097 24.376 18.676 38.456 22.748l56.545-56.545c4.322-4.322 9.102-7.939 14.172-10.833-6.406-22.84-6.604-47.066-.581-69.993-21.981 5.769-42.769 17.257-59.964 34.452l-62.423 62.423c3.753 6.333 8.35 12.303 13.795 17.748z" fill="url(#435523cb-ae50-414d-b81e-dd0609f36826)"></path><path d="m335.552 266.131c-5.948-21.183-17.232-41.173-33.871-57.812-.88-.88-1.775-1.738-2.674-2.588l-46.405 46.405c.921.822 1.824 1.674 2.706 2.556 1.812 1.812 3.5 3.71 5.052 5.67 17.294 21.672 19.211 51.66 5.775 75.187-2.894 5.07-6.511 9.85-10.833 14.172l-75.075 75.075c-26.204 26.204-68.83 26.204-95.028.006-.883-.883-1.731-1.788-2.555-2.708l-46.411 46.411c.85.899 1.712 1.79 2.592 2.67 51.771 51.771 136.004 51.765 187.775-.006l75.075-75.075c17.195-17.195 28.683-37.983 34.452-59.964 6.029-22.921 5.837-47.153-.575-69.999z" fill="url(#e8d6bfaa-baea-4206-9361-ff97ad827efc)"></path><path d="m217.764 387.258-37.538 37.538c-26.204 26.204-68.83 26.204-95.028.006s-26.198-68.824.006-95.028l37.538-37.538-46.373-46.373-37.538 37.537c-51.771 51.771-51.777 136.004-.006 187.775s136.004 51.765 187.775-.006l37.538-37.538z" fill="url(#4960fa8a-39fa-410b-8a81-57210d37b2ba)"></path><path d="m335.552 266.131c-5.948-21.183-17.232-41.173-33.871-57.812s-36.629-27.923-57.812-33.871c-13.442 23.533-11.525 53.509 5.769 75.193 1.96 1.552 3.858 3.24 5.67 5.052s3.5 3.71 5.052 5.67c12.476 15.634 16.946 35.596 13.425 54.339 23.279 3.453 47.747-3.063 66.523-19.544-.515-9.787-2.09-19.527-4.756-29.027z" fill="url(#004e6c5e-5346-46cd-85c3-6e8664afa730)"></path></g></g><g><path d="m112.312 100.599c-2.923-2.923-7.662-2.923-10.586 0-2.923 2.923-2.923 7.662 0 10.586l7.464 7.464c2.923 2.924 7.662 2.924 10.586 0 2.924-2.923 2.924-7.662 0-10.586z" fill="url(#20662762-ce27-4ec1-8898-2ee64461c696)"></path><path d="m49.982 194.487 9.776 3.981c3.829 1.559 8.196-.28 9.756-4.109 1.559-3.829-.28-8.196-4.109-9.756l-9.776-3.981c-3.829-1.559-8.196.28-9.756 4.109s.28 8.196 4.109 9.756z" fill="url(#758d8890-1958-4d9a-8b66-a37ecea0d183)"></path><path d="m192.962 69.431c3.81-1.605 5.598-5.994 3.993-9.804l-4.097-9.728c-1.605-3.81-5.994-5.598-9.804-3.993s-5.598 5.994-3.993 9.804l4.097 9.728c1.605 3.811 5.994 5.598 9.804 3.993z" fill="url(#1aa7f772-523b-4eec-8d81-d3b08cd4cc06)"></path></g></g></svg>