<svg version="1.1" id="78bf74b1-84fe-4849-8f41-91263abc105e" xmlns="http://www.w3.org/2000/svg" xmlns:xlink="http://www.w3.org/1999/xlink" x="0px" y="0px" viewBox="0 0 512 512" style="enable-background:new 0 0 512 512;" xml:space="preserve" fill="currentColor" width="16px" height="16px"><linearGradient id="0f4b250e-6539-4143-94d4-e6ee5d6ec7b2" gradientUnits="userSpaceOnUse" x1="254.8086" y1="49.373" x2="254.8086" y2="15.833" gradientTransform="matrix(1.0039 0 0 -1.0039 0.1922 516.5609)"><stop offset="0" style="stop-color:#A7F3CE"></stop><stop offset="1" style="stop-color:#61DB99"></stop></linearGradient><path style="fill:url(#0f4b250e-6539-4143-94d4-e6ee5d6ec7b2);" d="M81.371,449.558l-45.53,43.897C28.857,500.189,33.624,512,43.326,512h425.349	c9.726,0,14.482-11.863,7.447-18.581l-45.996-43.926c-3.622-3.46-8.438-5.389-13.447-5.389H94.884	C89.845,444.105,85,446.059,81.371,449.558z"></path><linearGradient id="143d0d73-3543-4e8c-95a3-7364e864e76d" gradientUnits="userSpaceOnUse" x1="310.8384" y1="14.9532" x2="265.9584" y2="59.8332" gradientTransform="matrix(1.0039 0 0 -1.0039 0.1922 516.5609)"><stop offset="0" style="stop-color:#61DB99;stop-opacity:0"></stop><stop offset="1" style="stop-color:#009E74"></stop></linearGradient><path style="fill:url(#143d0d73-3543-4e8c-95a3-7364e864e76d);" d="M311.82,444.144l-0.054-0.039H200.403c11.558,12.928,22.131,24.275,30.884,33.457L265.756,512	h113.92L311.82,444.144z"></path><linearGradient id="94dbf696-2993-4f71-89f9-a3953f4c7b92" gradientUnits="userSpaceOnUse" x1="186.0917" y1="374.2566" x2="384.7217" y2="175.6265" gradientTransform="matrix(1.0039 0 0 -1.0039 0.1922 516.5609)"><stop offset="0" style="stop-color:#FF4C54"></stop><stop offset="1" style="stop-color:#BE3F45"></stop></linearGradient><path style="fill:url(#94dbf696-2993-4f71-89f9-a3953f4c7b92);" d="M256.085,0C146.025,0,56.8,89.225,56.8,199.284c0,85.8,121.099,222.27,174.488,278.277	c13.503,14.168,36.092,14.168,49.595,0c53.402-56.007,174.502-192.477,174.502-278.277C455.383,89.225,366.158,0,256.085,0z	 M256.085,275.092c-41.867,0-75.807-33.941-75.807-75.807s33.941-75.807,75.807-75.807s75.807,33.941,75.807,75.807	S297.951,275.092,256.085,275.092z"></path><linearGradient id="89e94d7f-9b81-4a41-936b-33d582e8fc1d" gradientUnits="userSpaceOnUse" x1="299.6369" y1="360.7842" x2="169.9669" y2="231.1042" gradientTransform="matrix(1.0039 0 0 -1.0039 0.1922 516.5609)"><stop offset="0" style="stop-color:#FF4C54"></stop><stop offset="1" style="stop-color:#BE3F45"></stop></linearGradient><path style="fill:url(#89e94d7f-9b81-4a41-936b-33d582e8fc1d);" d="M256.085,78.808c-66.537,0-120.477,53.94-120.477,120.477s53.94,120.477,120.477,120.477	s120.477-53.94,120.477-120.477S322.621,78.808,256.085,78.808z M256.085,275.092c-41.867,0-75.807-33.941-75.807-75.807	s33.941-75.807,75.807-75.807s75.807,33.941,75.807,75.807S297.951,275.092,256.085,275.092z"></path><g></g><g></g><g></g><g></g><g></g><g></g><g></g><g></g><g></g><g></g><g></g><g></g><g></g><g></g><g></g></svg>