<svg id="4ebf47c7-8972-46d5-b94c-da6b66d58605" enable-background="new 0 0 512 512" viewBox="0 0 512 512" xmlns="http://www.w3.org/2000/svg" xmlns:xlink="http://www.w3.org/1999/xlink" fill="currentColor" width="16px" height="16px"><linearGradient id="396c23d2-6e9f-4404-adc2-88c51e7c3257"><stop offset="0" stop-color="#aeffd1"></stop><stop offset=".1199" stop-color="#a3f9ca"></stop><stop offset=".3284" stop-color="#86eab9"></stop><stop offset=".6004" stop-color="#58d19d"></stop><stop offset=".9223" stop-color="#19af76"></stop><stop offset="1" stop-color="#09a76d"></stop></linearGradient><linearGradient id="c158fe69-4cf2-4140-80e6-55d20237503b" gradientTransform="matrix(1 0 0 -1 0 514)" gradientUnits="userSpaceOnUse" x1="172.082" x2="297.713" xlink:href="#396c23d2-6e9f-4404-adc2-88c51e7c3257" y1="304.586" y2="288.71"></linearGradient><linearGradient id="eb6f3e2e-dc29-4498-97ee-fdbf56a1526c"><stop offset="0" stop-color="#02905d" stop-opacity="0"></stop><stop offset=".1736" stop-color="#028e5b" stop-opacity=".048"></stop><stop offset=".381" stop-color="#028857" stop-opacity=".188"></stop><stop offset=".6055" stop-color="#027f51" stop-opacity=".42"></stop><stop offset=".8407" stop-color="#027248" stop-opacity=".741"></stop><stop offset="1" stop-color="#026841"></stop></linearGradient><linearGradient id="da48f4e5-fc9d-41db-8db2-f17c247f43bb" gradientTransform="matrix(1 0 0 -1 0 514)" gradientUnits="userSpaceOnUse" x1="237.927" x2="198.021" xlink:href="#eb6f3e2e-dc29-4498-97ee-fdbf56a1526c" y1="359.925" y2="375.011"></linearGradient><linearGradient id="f56152f3-0bd0-4ae2-a275-cc55f46b1360" gradientTransform="matrix(1 0 0 -1 0 514)" gradientUnits="userSpaceOnUse" x1="188.525" x2="321.382" xlink:href="#396c23d2-6e9f-4404-adc2-88c51e7c3257" y1="437.099" y2="420.309"></linearGradient><linearGradient id="f0c0dd5e-e1de-42fd-8f6b-82f16e48464d" gradientTransform="matrix(1 0 0 -1 0 514)" gradientUnits="userSpaceOnUse" x1="204.165" x2="204.165" xlink:href="#eb6f3e2e-dc29-4498-97ee-fdbf56a1526c" y1="407.251" y2="346.835"></linearGradient><linearGradient id="5255b0f1-5133-4d28-a943-f284cbc4db36" gradientTransform="matrix(1 0 0 -1 0 514)" gradientUnits="userSpaceOnUse" x1="267.658" x2="294.756" xlink:href="#eb6f3e2e-dc29-4498-97ee-fdbf56a1526c" y1="296.085" y2="296.085"></linearGradient><linearGradient id="c5799f04-507c-463f-9a11-851483623390" gradientTransform="matrix(1 0 0 -1 0 514)" gradientUnits="userSpaceOnUse" x1="228.392" x2="242.261" y1="412.214" y2="390.314"><stop offset="0" stop-color="#aeffd1" stop-opacity="0"></stop><stop offset=".1101" stop-color="#aeffd1" stop-opacity=".018"></stop><stop offset=".234" stop-color="#aeffd1" stop-opacity=".071"></stop><stop offset=".3647" stop-color="#aeffd1" stop-opacity=".16"></stop><stop offset=".4999" stop-color="#aeffd1" stop-opacity=".284"></stop><stop offset=".6389" stop-color="#aeffd1" stop-opacity=".443"></stop><stop offset=".7808" stop-color="#aeffd1" stop-opacity=".638"></stop><stop offset=".9226" stop-color="#aeffd1" stop-opacity=".864"></stop><stop offset="1" stop-color="#aeffd1"></stop></linearGradient><linearGradient id="2959b765-71db-4262-8caf-cc668cd4b1d0" gradientTransform="matrix(1 0 0 -1 0 514)" gradientUnits="userSpaceOnUse" x1="244.357" x2="341.307" xlink:href="#396c23d2-6e9f-4404-adc2-88c51e7c3257" y1="263.723" y2="220.238"></linearGradient><linearGradient id="b8be95d6-4fc6-491d-8d99-e3628912f660" gradientTransform="matrix(1 0 0 -1 0 514)" gradientUnits="userSpaceOnUse" x1="261.917" x2="305.402" xlink:href="#eb6f3e2e-dc29-4498-97ee-fdbf56a1526c" y1="221.516" y2="173.754"></linearGradient><linearGradient id="edef3820-1b51-4965-9510-9881ebd6437d" gradientTransform="matrix(1 0 0 -1 0 514)" gradientUnits="userSpaceOnUse" x1="212.798" x2="325.432" xlink:href="#396c23d2-6e9f-4404-adc2-88c51e7c3257" y1="128.154" y2="73.263"></linearGradient><linearGradient id="af7816f9-f1fd-4516-94cf-ca78f213dbe3" gradientTransform="matrix(1 0 0 -1 0 514)" gradientUnits="userSpaceOnUse" x1="278.67" x2="310.749" xlink:href="#eb6f3e2e-dc29-4498-97ee-fdbf56a1526c" y1="103.869" y2="98.879"></linearGradient><linearGradient id="07971f56-92dc-4da7-a8b6-522247d0979d" gradientTransform="matrix(1 0 0 -1 0 514)" gradientUnits="userSpaceOnUse" x1="245.606" x2="245.606" xlink:href="#eb6f3e2e-dc29-4498-97ee-fdbf56a1526c" y1="24.267" y2="2.692"></linearGradient><linearGradient id="1bc1f678-f6d5-4286-8c45-ea748ef20534" gradientTransform="matrix(1 0 0 -1 0 514)" gradientUnits="userSpaceOnUse" x1="338.348" x2="372.566" xlink:href="#eb6f3e2e-dc29-4498-97ee-fdbf56a1526c" y1="286.874" y2="281.171"></linearGradient><g><path d="m295.3 435.8h-102.4v-343.5c0-51 41.3-92.3 92.3-92.3 5.6 0 10.1 4.5 10.1 10.1z" fill="url(#c158fe69-4cf2-4140-80e6-55d20237503b)"></path><path d="m285.2 0c-51 0-92.3 41.3-92.3 92.3v217.4h102.4v-299.6c0-5.6-4.5-10.1-10.1-10.1z" fill="url(#da48f4e5-fc9d-41db-8db2-f17c247f43bb)"></path><path d="m284.8 0h-71.2c-5.7 0-10.5 4.2-11.4 9.8-2.1 14.3-8.5 27.2-18 37.2-10.2 11-24.1 18.5-39.7 20.8-5.7.8-9.9 5.6-9.9 11.4v71.2c0 5.9 5 10.5 10.8 10.1 80-5.4 144.2-69.5 149.6-149.6.3-5.9-4.3-10.9-10.2-10.9z" fill="url(#f56152f3-0bd0-4ae2-a275-cc55f46b1360)"></path><path d="m273.8 80.2c-26.1 45.2-73.6 76.5-128.5 80.2-5.9.4-10.8-4.2-10.8-10.1v-70.1z" fill="url(#f0c0dd5e-e1de-42fd-8f6b-82f16e48464d)"></path><path d="m285.2 0c-.1 0-.2 0-.3 0 0 0 0 0-.1 0h-52.9v435.8h63.4v-425.7c0-5.6-4.5-10.1-10.1-10.1z" fill="url(#5255b0f1-5133-4d28-a943-f284cbc4db36)"></path><path d="m284.8 0h-71.2c-5.7 0-10.5 4.2-11.4 9.8-2.1 14.3-8.5 27.2-18 37.2-10.2 11-24.1 18.5-39.7 20.8-5.7.8-9.9 5.6-9.9 11.4v71.2c0 5.9 5 10.5 10.8 10.1 80-5.4 144.2-69.5 149.6-149.6.3-5.9-4.3-10.9-10.2-10.9z" fill="url(#c5799f04-507c-463f-9a11-851483623390)"></path><path d="m377.5 176.1c0 16.5-3.2 33.1-9.5 48.6s-15.8 30.1-28.4 42.7c-27.7 27.7-43.3 65.3-43.4 104.5v63.9h-103.3v-114.4c0-35.7 14.5-67.9 37.8-91.3.9-.9 1.8-1.8 2.7-2.6l33.2-33.1c28.8-28.8 50.6-63.8 62-103l1.1-3.9c.3-1 .8-1.9 1.5-2.6 2.2-2.2 6-2.5 8.5 0 25.2 25.1 37.8 58.2 37.8 91.2z" fill="url(#2959b765-71db-4262-8caf-cc668cd4b1d0)"></path><path d="m262.7 198.2-29.3 29.3c-.9.9-1.8 1.7-2.7 2.6-23.4 23.4-37.8 55.6-37.8 91.3v114.5h103.4c0-2.7 0-60.5 0-63.9 0-39.2 15.6-76.8 43.4-104.5 12.6-12.6 22.1-27.2 28.4-42.7 3.5-8.6 6-17.5 7.6-26.5h-113z" fill="url(#b8be95d6-4fc6-491d-8d99-e3628912f660)"></path><path d="m328 312.7c0 1-.2 1.9-.8 2.9l-2 3.6c-19.7 35.8-29 75.9-29 116.7v37.2 31.4c0 4.2-3.4 7.6-7.6 7.6h-88.3c-4.2 0-7.6-3.4-7.6-7.6v-68.6c0-35.7 14.5-67.9 37.8-91.3 23.4-23.4 55.6-37.8 91.3-37.8 3.7-.1 6.2 2.8 6.2 5.9z" fill="url(#edef3820-1b51-4965-9510-9881ebd6437d)"></path><path d="m328 312.7c0 1-.2 1.9-.8 2.9l-2 3.6c-19.7 35.8-29 75.9-29 116.7v37.2 31.4c0 4.2-3.4 7.6-7.6 7.6h-63.6v-161.4c1.8-2.1 3.8-4.2 5.8-6.1 23.4-23.4 55.6-37.8 91.3-37.8 3.4-.1 5.9 2.8 5.9 5.9z" fill="url(#af7816f9-f1fd-4516-94cf-ca78f213dbe3)"></path><path d="m298.3 403.2h-101.3c-2.7 10.4-4.2 21.4-4.2 32.6v68.6c0 4.2 3.4 7.6 7.6 7.6h88.3c4.2 0 7.6-3.4 7.6-7.6 0-10.9 0-21.7 0-31.4v-37.2c0-10.9.7-21.8 2-32.6z" fill="url(#07971f56-92dc-4da7-a8b6-522247d0979d)"></path><path d="m331.2 84.8c-.7.7-1.2 1.5-1.5 2.6l-1.1 3.9c-7.3 25-18.8 48.3-33.6 69.4v202.9h1.6c2.1-36.2 17.4-70.4 43.1-96.1 12.6-12.6 22.1-27.2 28.4-42.7s9.5-32.1 9.5-48.6c0-33-12.6-66.1-37.8-91.3-2.6-2.5-6.4-2.3-8.6-.1z" fill="url(#1bc1f678-f6d5-4286-8c45-ea748ef20534)"></path></g></svg>