<svg id="f436a3e5-b7bd-4ca6-b8bd-3e5e0483a13d" enable-background="new 0 0 510 510" height="16px" viewBox="0 0 510 510" width="16px" xmlns="http://www.w3.org/2000/svg" xmlns:xlink="http://www.w3.org/1999/xlink" fill="currentColor"><linearGradient id="d9af6126-0810-4822-a4fa-f0f2c72977d4"><stop offset="0" stop-color="#bce097"></stop><stop offset="1" stop-color="#7dc03a"></stop></linearGradient><linearGradient id="64dbaef1-8c95-4440-86ad-df196136aee4" gradientUnits="userSpaceOnUse" x1="70.966" x2="179.341" xlink:href="#d9af6126-0810-4822-a4fa-f0f2c72977d4" y1="339.034" y2="447.408"></linearGradient><linearGradient id="963e4690-c593-4bfd-805a-1100be35b620"><stop offset="0" stop-color="#8cc951" stop-opacity="0"></stop><stop offset="1" stop-color="#3e6e66"></stop></linearGradient><linearGradient id="c2275862-52e7-4211-bbdc-56d187bedebb" gradientUnits="userSpaceOnUse" x1="160" x2="204.553" xlink:href="#963e4690-c593-4bfd-805a-1100be35b620" y1="437.589" y2="437.589"></linearGradient><linearGradient id="30b1213e-847b-4954-b525-b33080f756b9" gradientUnits="userSpaceOnUse" x1="327.534" x2="442.747" xlink:href="#d9af6126-0810-4822-a4fa-f0f2c72977d4" y1="59.466" y2="174.679"></linearGradient><linearGradient id="6796d6cc-b17c-4840-bac6-e61bf9faa0ff" gradientUnits="userSpaceOnUse" x1="351" x2="304.61" xlink:href="#963e4690-c593-4bfd-805a-1100be35b620" y1="72.411" y2="72.411"></linearGradient><linearGradient id="6a6462ae-ed4a-488a-8234-c6e617d29989"><stop offset="0" stop-color="#76ccf8"></stop><stop offset=".833" stop-color="#518ef8"></stop><stop offset="1" stop-color="#4981f8"></stop></linearGradient><linearGradient id="c41d4265-f4cd-4b3a-8c76-eacb1e8ab431" gradientUnits="userSpaceOnUse" x1="241.861" x2="466.548" xlink:href="#6a6462ae-ed4a-488a-8234-c6e617d29989" y1="241.861" y2="466.548"></linearGradient><linearGradient id="90d9fe38-2ef8-45eb-9d28-f8962e3669d5"><stop offset="0" stop-color="#4071f7" stop-opacity="0"></stop><stop offset="1" stop-color="#30569f"></stop></linearGradient><linearGradient id="57b9cad8-c7c3-4b64-b73d-3443b7a4e9a4" gradientUnits="userSpaceOnUse" x1="364.54" x2="112.114" xlink:href="#90d9fe38-2ef8-45eb-9d28-f8962e3669d5" y1="446.127" y2="193.7"></linearGradient><linearGradient id="2d2a3adb-a0c4-45a8-afdb-d90832dce048" gradientUnits="userSpaceOnUse" x1="516.396" x2="288.697" xlink:href="#90d9fe38-2ef8-45eb-9d28-f8962e3669d5" y1="526.604" y2="298.906"></linearGradient><linearGradient id="ed8edbbd-cf2e-494b-af5a-28371c08cf87"><stop offset="0" stop-color="#eef4ff"></stop><stop offset="1" stop-color="#cfe7fd"></stop></linearGradient><linearGradient id="51ed2011-1a37-4841-85c2-e096cd436fad" gradientUnits="userSpaceOnUse" x1="342.23" x2="413.25" xlink:href="#ed8edbbd-cf2e-494b-af5a-28371c08cf87" y1="352.437" y2="423.456"></linearGradient><linearGradient id="628d194d-2a78-4846-b0c9-47af0f941953"><stop offset="0" stop-color="#8aaadc" stop-opacity="0"></stop><stop offset="1" stop-color="#8aaadc"></stop></linearGradient><linearGradient id="2a3ba6ee-3c3c-4059-879f-c63d62b6dce9" gradientUnits="userSpaceOnUse" x1="370.67" x2="211.684" xlink:href="#628d194d-2a78-4846-b0c9-47af0f941953" y1="407.997" y2="249.012"></linearGradient><linearGradient id="1113aa48-6523-48ef-aa19-fa4d654623a1" gradientUnits="userSpaceOnUse" x1="355.5" x2="355.5" xlink:href="#90d9fe38-2ef8-45eb-9d28-f8962e3669d5" y1="448.2" y2="510.012"></linearGradient><linearGradient id="8095e0d1-5216-4794-8e50-edc48437ec09" gradientUnits="userSpaceOnUse" x1="40.861" x2="265.548" xlink:href="#ed8edbbd-cf2e-494b-af5a-28371c08cf87" y1="40.861" y2="265.548"></linearGradient><linearGradient id="0c19df92-e5a5-456d-ac6f-cff33de68d97" gradientUnits="userSpaceOnUse" x1="154.5" x2="154.5" xlink:href="#628d194d-2a78-4846-b0c9-47af0f941953" y1="247.2" y2="309.012"></linearGradient><linearGradient id="07693c43-7aa4-4a58-bf2e-9abebc6e99f4" gradientUnits="userSpaceOnUse" x1="385.737" x2="128.737" xlink:href="#628d194d-2a78-4846-b0c9-47af0f941953" y1="308.857" y2="166.857"></linearGradient><linearGradient id="2248e200-be82-41cf-91f3-d40fb22ac80a" gradientUnits="userSpaceOnUse" x1="76.759" x2="185.667" xlink:href="#6a6462ae-ed4a-488a-8234-c6e617d29989" y1="106.241" y2="215.15"></linearGradient><g><path d="m246.314 421.384c-6.362-6.362-15.741-8.532-24.307-5.781-9.463 3.04-19.613 4.536-30.148 4.192-25.482-.831-48.301-12.494-64.045-30.472l12.494-8.089c7.921-5.128 7.099-16.969-1.454-20.955l-65.351-30.451c-8.025-3.739-17.198 2.2-17.071 11.052v72.089c.136 9.435 11.642 15.031 19.563 9.902l12.196-7.896c24.611 30.792 61.905 51.361 102.846 52.472 16.069.436 31.545-1.915 45.976-6.605 16.844-5.473 21.824-26.935 9.301-39.458z" fill="url(#64dbaef1-8c95-4440-86ad-df196136aee4)"></path><path d="m246.314 421.384c-6.361-6.362-15.741-8.532-24.306-5.781-9.463 3.04-19.613 4.536-30.148 4.192-15.216-.496-29.481-4.857-41.859-12.116v51.923c12.984 4.711 26.789 7.46 41.038 7.847 16.069.436 31.545-1.915 45.976-6.605 16.842-5.475 21.822-26.937 9.299-39.46z" fill="url(#c2275862-52e7-4211-bbdc-56d187bedebb)"></path><path d="m263.686 88.616c6.362 6.362 15.741 8.532 24.307 5.781 9.463-3.04 19.613-4.536 30.148-4.192 25.482.831 48.301 12.494 64.045 30.472l-12.494 8.089c-7.921 5.128-7.099 16.969 1.454 20.955l65.351 30.451c8.025 3.739 17.198-2.2 17.071-11.052v-72.09c-.136-9.435-11.642-15.031-19.563-9.902l-12.196 7.896c-24.611-30.792-61.905-51.361-102.846-52.472-16.069-.436-31.545 1.915-45.976 6.605-16.844 5.474-21.824 26.936-9.301 39.459z" fill="url(#30b1213e-847b-4954-b525-b33080f756b9)"></path><path d="m360 50.398c-12.984-4.711-26.789-7.46-41.038-7.847-16.069-.436-31.545 1.915-45.976 6.605-16.843 5.474-21.824 26.937-9.301 39.46 6.361 6.362 15.741 8.532 24.306 5.781 9.463-3.04 19.613-4.536 30.148-4.192 15.216.496 29.481 4.857 41.859 12.116v-51.923z" fill="url(#6796d6cc-b17c-4840-bac6-e61bf9faa0ff)"></path><g><path d="m445.419 510h-179.838c-35.667 0-64.581-28.914-64.581-64.581v-179.838c0-35.667 28.914-64.581 64.581-64.581h179.838c35.667 0 64.581 28.914 64.581 64.581v179.838c0 35.667-28.914 64.581-64.581 64.581z" fill="url(#c41d4265-f4cd-4b3a-8c76-eacb1e8ab431)"></path><path d="m510 402v43.42c0 35.67-28.91 64.58-64.58 64.58h-179.84c-35.67 0-64.58-28.91-64.58-64.58v-179.84c0-35.67 28.91-64.58 64.58-64.58h43.42z" fill="url(#57b9cad8-c7c3-4b64-b73d-3443b7a4e9a4)"></path><path d="m445.419 510c35.667 0 64.581-28.914 64.581-64.581v-97.201l-57.783-57.783c-2.679-4.091-7.295-6.798-12.55-6.798h-56.774c-.261-.197-13.843-13.615-13.843-13.615-2.679-4.091-7.295-6.798-12.55-6.798-8.284 0-15 6.716-15 15v5.413h-68.166c-8.284 0-15 6.716-15 15 0 5.255 2.707 9.871 6.798 12.55l38.409 38.618c5.88 17.428 15.464 33.042 28.172 45.993-19.03 11.382-39.66 19.544-61.573 24.318-8.095 1.764-13.227 9.755-11.463 17.85.872 4.004 3.271 7.278 6.45 9.356l62.678 62.678z" fill="url(#2d2a3adb-a0c4-45a8-afdb-d90832dce048)"></path><path d="m441.86 419.117c-21.93-4.778-42.575-12.949-61.616-24.344 21.312-21.848 33.882-51.314 34.562-82.135h23.861c8.284 0 15-6.716 15-15s-6.716-15-15-15h-68.167v-5.413c0-8.284-6.716-15-15-15s-15 6.716-15 15v5.413h-68.166c-8.284 0-15 6.716-15 15s6.716 15 15 15h112.472c-.718 24.512-11.429 47.833-29.313 64.387-11.693-10.767-20.315-24.309-25.141-39.661-2.484-7.903-10.905-12.297-18.809-9.811-7.902 2.484-12.295 10.905-9.811 18.809 5.79 18.416 15.679 34.883 28.98 48.437-19.03 11.382-39.66 19.544-61.573 24.318-8.095 1.764-13.227 9.755-11.463 17.85 1.529 7.019 7.74 11.81 14.642 11.81 1.058 0 2.133-.112 3.208-.347 28.768-6.269 55.613-17.619 79.973-33.793 24.36 16.173 51.205 27.524 79.973 33.793 1.076.234 2.149.347 3.208.347 6.9 0 13.112-4.791 14.642-11.81 1.764-8.095-3.367-16.087-11.462-17.85z" fill="url(#51ed2011-1a37-4841-85c2-e096cd436fad)"></path><path d="m420.637 312.637-30-30h-20.137v-5.413c0-8.284-6.716-15-15-15s-15 6.716-15 15v5.413h-68.166c-8.284 0-15 6.716-15 15s6.716 15 15 15h112.472c-.718 24.512-11.429 47.833-29.313 64.387-11.693-10.767-20.315-24.309-25.141-39.661-2.484-7.903-10.905-12.297-18.809-9.811-7.902 2.484-12.295 10.905-9.811 18.809 5.79 18.416 15.679 34.883 28.98 48.437-19.03 11.382-39.66 19.544-61.573 24.318-8.095 1.764-13.227 9.755-11.463 17.85 1.529 7.019 7.74 11.81 14.642 11.81 1.058 0 2.133-.112 3.208-.347 28.768-6.269 55.613-17.619 79.973-33.793 24.36 16.173 51.205 27.524 79.973 33.793 1.076.234 2.149.347 3.208.347 6.9 0 13.112-4.791 14.642-11.81 1.764-8.095-3.368-16.086-11.463-17.85-21.93-4.778-42.575-12.949-61.616-24.344 21.312-21.848 33.882-51.314 34.562-82.135z" fill="url(#2a3ba6ee-3c3c-4059-879f-c63d62b6dce9)"></path><path d="m201 409.804v35.615c0 35.667 28.914 64.581 64.581 64.581h179.838c35.667 0 64.581-28.914 64.581-64.581v-35.615z" fill="url(#1113aa48-6523-48ef-aa19-fa4d654623a1)"></path></g><g><path d="m244.419 309h-179.838c-35.667 0-64.581-28.914-64.581-64.581v-179.838c0-35.667 28.914-64.581 64.581-64.581h179.838c35.667 0 64.581 28.914 64.581 64.581v179.838c0 35.667-28.914 64.581-64.581 64.581z" fill="url(#8095e0d1-5216-4794-8e50-edc48437ec09)"></path><path d="m0 208.804v35.615c0 35.667 28.914 64.581 64.581 64.581h179.838c35.667 0 64.581-28.914 64.581-64.581v-35.615z" fill="url(#0c19df92-e5a5-456d-ac6f-cff33de68d97)"></path></g><path d="m182 46h-46l-68.333 216.667 46.333 46.333h130.419c35.667 0 64.581-28.914 64.581-64.581v-71.419z" fill="url(#07693c43-7aa4-4a58-bf2e-9abebc6e99f4)"></path><g><path d="m61.87 251.593c0-.956.319-2.232.639-3.507l59.308-194.506c3.507-11.16 17.856-16.58 32.524-16.58s29.016 5.42 32.524 16.58l59.626 194.506c.319 1.274.639 2.55.639 3.507 0 11.799-18.176 20.407-31.887 20.407-7.971 0-14.349-2.55-16.262-9.247l-10.842-39.858h-67.278l-10.842 39.858c-1.913 6.697-8.291 9.247-16.262 9.247-13.71 0-31.887-8.608-31.887-20.407zm115.748-66.961-23.277-85.455-23.277 85.455z" fill="url(#2248e200-be82-41cf-91f3-d40fb22ac80a)"></path></g></g></svg>